<?xml version="1.0" encoding="utf-8"?>
<!-- Generator: Adobe Illustrator 27.3.1, SVG Export Plug-In . SVG Version: 6.00 Build 0)  -->
<svg version="1.1" id="Ebene_1" xmlns="http://www.w3.org/2000/svg" xmlns:xlink="http://www.w3.org/1999/xlink" x="0px" y="0px"
	 viewBox="0 0 342.1 363" style="enable-background:new 0 0 342.1 363;" xml:space="preserve">
<style type="text/css">
	.st0{fill:#6C150E;}
	.st1{fill:#C01718;}
</style>
<g>
	<g>
		<path class="st0" d="M135.9,121.4c-3.3,0-6.1,2.7-6.1,6.1v124.4c0,3.3,2.7,6.1,6.1,6.1s6.1-2.7,6.1-6.1V121.4H135.9z"/>
		<path class="st0" d="M195.9,127.4v124.4c0,3.3-2.7,6.1-6.1,6.1h-54c3.3,0,6.1-2.7,6.1-6.1V121.4h47.9
			C193.2,121.4,195.9,124.1,195.9,127.4L195.9,127.4L195.9,127.4z"/>
		<path class="st0" d="M74.5,126.9H33.6c-3.3,0-6,2.7-6,6.1v118.8c0,3.3,2.7,6.1,6,6.1h40.9c3.3,0,6.1-2.7,6.1-6.1V133
			C80.6,129.6,77.8,126.9,74.5,126.9L74.5,126.9z"/>
		<path class="st1" d="M141.9,121.4V79c0-3.3-2.7-6.1-6.1-6.1H74.5c-3.3,0-6.1,2.7-6.1,6.1v47.9l0,0v124.9c0,3.3,2.7,6.1,6.1,6.1
			h61.4c3.3,0,6.1-2.7,6.1-6.1V121.4h-6.1H141.9z"/>
	</g>
	<path class="st1" d="M324.7,187.2L294.4,157c-3.5-3.6-8.2-5.1-13.2-5.1l-7.1-0.1h-60c-5.1,0-9.3,4.2-9.3,9.3v84.4H62.8v0.1H50.7
		v-0.1H39.5v0.1H10.5v56.3c0,10.4,8.4,18.8,18.8,18.8h19.3c3.1,21.2,21.3,37.6,43.4,37.6s40.3-16.4,43.4-37.6h70
		c3.1,21.2,21.3,37.6,43.4,37.6s40.3-16.4,43.4-37.6h19.3c10.4,0,18.8-8.4,18.8-18.8V200.5C330.2,195.5,328.2,190.8,324.7,187.2
		L324.7,187.2L324.7,187.2z M91.9,345.8c-17.3,0-31.3-14.1-31.3-31.3s14.1-31.4,31.3-31.4s31.3,14.1,31.3,31.4
		S109.2,345.8,91.9,345.8z M248.7,345.8c-17.3,0-31.3-14.1-31.3-31.3s14.1-31.4,31.3-31.4s31.3,14.1,31.3,31.4
		S266,345.8,248.7,345.8z M317.6,217.4c0,5.1-4.2,9.3-9.3,9.3h-34.4c-2.5,0-4.8-1-6.6-2.7l-9.7-9.7c-1.8-1.8-2.7-4.1-2.7-6.6v-34.4
		c0-5.1,4.2-9.3,9.3-9.3h16.9c1.7,0,3.2,0.6,4.4,1.8l29.4,29.4c1.8,1.8,2.7,4.1,2.7,6.6L317.6,217.4L317.6,217.4z"/>
	<path class="st0" d="M123.3,314.5c0,17.3-14.1,31.3-31.3,31.3s-31.3-14.1-31.3-31.3s14.1-31.4,31.3-31.4S123.3,297.2,123.3,314.5z"
		/>
	<path class="st0" d="M280,314.5c0,17.3-14.1,31.3-31.3,31.3s-31.3-14.1-31.3-31.3s14.1-31.4,31.3-31.4S280,297.2,280,314.5z"/>
	<polygon class="st0" points="68.4,245.5 68.4,245.7 39.6,245.7 39.6,245.6 62.8,245.6 62.8,245.5 	"/>
	<path class="st0" d="M292.5,315.8c0,24.2-19.7,43.9-43.9,43.9s-43.9-19.7-43.9-43.9s19.7-43.9,43.9-43.9S292.5,291.6,292.5,315.8z"
		/>
	<path class="st0" d="M135.8,315.8c0,24.2-19.7,43.9-43.8,43.9S48.1,340,48.1,315.8S67.8,272,92,272S135.8,291.6,135.8,315.8z"/>
</g>
<g>
	<path class="st0" d="M330.2,283.1h-15.6c-3.5,0-6.3,2.8-6.3,6.3s2.8,6.3,6.3,6.3h15.6"/>
	<path class="st0" d="M330.2,258h-28.1c-3.5,0-6.3,2.8-6.3,6.3s2.8,6.3,6.3,6.3h28.1"/>
</g>
</svg>
