<?xml version="1.0" encoding="utf-8"?>
<!-- Generator: Adobe Illustrator 27.3.1, SVG Export Plug-In . SVG Version: 6.00 Build 0)  -->
<svg version="1.1" id="Ebene_1" xmlns="http://www.w3.org/2000/svg" xmlns:xlink="http://www.w3.org/1999/xlink" x="0px" y="0px"
	 viewBox="0 0 573.4 573.4" style="enable-background:new 0 0 573.4 573.4;" xml:space="preserve">
<style type="text/css">
	.st0{fill:#C00000;}
	.st1{fill:#6E0000;}
</style>
<g>
	<path class="st0" d="M377.4,136.5H197.1c-33.3,0-60.6,27.3-60.6,60.6v180.4c0,33.3,27.3,60.6,60.6,60.6h180.4
		c33.3,0,60.6-27.3,60.6-60.6V197.1C438,163.8,410.7,136.5,377.4,136.5L377.4,136.5L377.4,136.5z M350.6,322.8
		c-8.9,16.6-24.4,28.9-42.7,33.8c-5.8,1.5-11.7,2.3-17.5,2.3c-12.7,0-25.2-3.6-36.3-10.6c-28-17.7-39.1-54-25.9-84.3
		c7.6-17.4,21.5-30.6,39.3-37c17-6.1,35.8-5.2,52,2.4L325,219c0.7-1.3,2-2,3.5-1.8c1.4,0.1,2.6,1.1,3,2.5l8.9,31.2l-30.5,9.3
		c-1.4,0.4-2.8,0-3.8-1.1c-0.9-1.1-1.1-2.6-0.4-3.9l4.9-9.1c-11.5-5.1-24.8-5.6-36.7-1.3c-12.8,4.6-22.8,14-28.3,26.5
		c-9.6,22.1-1.6,48.3,18.9,61.1c11.7,7.3,25.4,9.4,38.8,5.9c13.1-3.5,24.3-12.4,30.7-24.3l1-1.8l16.7,8.9L350.6,322.8L350.6,322.8z"
		/>
	<path class="st0" d="M286.7,162.7L286.7,162.7c-3.5,0-6.2-2.8-6.2-6.3v-98c0-3.5,2.8-6.2,6.3-6.2l0,0c3.5,0,6.3,2.8,6.2,6.3v98.1
		C293,159.9,290.2,162.7,286.7,162.7L286.7,162.7L286.7,162.7z"/>
	<path class="st0" d="M206.7,162.7L206.7,162.7c-3.4,0-6.2-2.8-6.2-6.3v-98c0-3.5,2.8-6.3,6.3-6.3l0,0c3.4,0,6.2,2.8,6.2,6.3v98
		C213,159.9,210.2,162.7,206.7,162.7L206.7,162.7z"/>
	<path class="st0" d="M366.7,162.7L366.7,162.7c-3.5,0-6.3-2.8-6.3-6.3v-98c0-3.5,2.8-6.3,6.3-6.3l0,0c3.5,0,6.3,2.8,6.3,6.3v98
		C373,159.9,370.2,162.7,366.7,162.7L366.7,162.7z"/>
	<path class="st0" d="M286.7,521.4L286.7,521.4c-3.5,0-6.2-2.8-6.2-6.3v-98c0-3.5,2.8-6.3,6.3-6.3l0,0c3.5,0,6.2,2.8,6.2,6.3v98
		C293,518.5,290.2,521.4,286.7,521.4z"/>
	<path class="st0" d="M206.7,521.3L206.7,521.3c-3.4,0-6.2-2.8-6.2-6.3V417c0-3.5,2.8-6.3,6.3-6.3l0,0c3.4,0,6.2,2.8,6.2,6.3v98
		C213,518.5,210.2,521.3,206.7,521.3L206.7,521.3z"/>
	<path class="st0" d="M366.7,521.4L366.7,521.4c-3.5,0-6.3-2.8-6.3-6.3v-98c0-3.5,2.8-6.2,6.3-6.2l0,0c3.5,0,6.3,2.8,6.3,6.3v98
		C373,518.6,370.2,521.4,366.7,521.4L366.7,521.4z"/>
	<path class="st0" d="M515.1,293H417c-3.5,0-6.3-2.8-6.3-6.3s2.8-6.3,6.3-6.3h98.1c3.5,0,6.3,2.8,6.3,6.3S518.6,293,515.1,293z"/>
	<path class="st0" d="M515.1,213H417c-3.5,0-6.3-2.8-6.3-6.3s2.8-6.3,6.3-6.3h98.1c3.5,0,6.3,2.8,6.3,6.3S518.6,213,515.1,213z"/>
	<path class="st0" d="M515.1,373H417c-3.5,0-6.3-2.8-6.3-6.3s2.8-6.3,6.3-6.3h98.1c3.5,0,6.3,2.8,6.3,6.3S518.6,373,515.1,373z"/>
	<path class="st0" d="M156.4,293h-98c-3.5,0-6.2-2.8-6.2-6.3s2.8-6.2,6.3-6.2h98.1c3.4,0,6.2,2.8,6.2,6.3S159.9,293,156.4,293
		L156.4,293z"/>
	<path class="st0" d="M156.4,213H58.4c-3.5,0-6.2-2.8-6.2-6.3s2.8-6.3,6.3-6.3h98.1c3.4,0,6.2,2.8,6.2,6.3S159.9,213,156.4,213
		L156.4,213z"/>
	<path class="st0" d="M156.4,373h-98c-3.5,0-6.2-2.8-6.2-6.3s2.8-6.3,6.3-6.3h98.1c3.4,0,6.2,2.8,6.2,6.3S159.9,373,156.4,373
		L156.4,373z"/>
	<path class="st0" d="M307.3,533.2c0-11.4-9.2-20.6-20.6-20.6s-20.6,9.2-20.6,20.6s9.2,20.6,20.6,20.6S307.3,544.6,307.3,533.2z"/>
	<path class="st0" d="M227.4,533.2c0-11.4-9.2-20.6-20.6-20.6s-20.6,9.2-20.6,20.6s9.2,20.6,20.6,20.6S227.4,544.6,227.4,533.2z"/>
	<path class="st0" d="M387.3,533.2c0-11.4-9.2-20.6-20.6-20.6s-20.6,9.2-20.6,20.6s9.2,20.6,20.6,20.6S387.3,544.6,387.3,533.2z"/>
	<path class="st0" d="M286.7,560.1L286.7,560.1c-14.8,0-26.9-12.1-26.9-26.9c0-7.2,2.8-13.9,7.9-19c5.1-5.1,11.8-7.9,19-7.9l0,0
		c14.8,0,26.9,12.1,26.9,26.9l0,0C313.6,548,301.6,560,286.7,560.1L286.7,560.1z M286.7,518.8c-3.8,0-7.5,1.5-10.2,4.2
		c-2.7,2.7-4.2,6.3-4.2,10.2c0,7.9,6.5,14.4,14.4,14.4s14.4-6.5,14.4-14.4S294.6,518.7,286.7,518.8L286.7,518.8L286.7,518.8z
		 M307.4,533.2L307.4,533.2z"/>
	<path class="st0" d="M206.7,560L206.7,560c-14.8,0-26.9-12.1-26.9-26.9s12.1-26.9,26.9-26.9s26.9,12.1,26.9,26.9
		c0,7.2-2.8,13.9-7.9,19C220.7,557.2,213.9,560.1,206.7,560L206.7,560z M206.7,518.8c-7.9,0-14.4,6.5-14.4,14.4s6.5,14.4,14.4,14.4
		l0,0c3.8,0,7.5-1.5,10.2-4.2c2.7-2.7,4.2-6.3,4.2-10.2l0,0C221.1,525.2,214.6,518.8,206.7,518.8L206.7,518.8L206.7,518.8z"/>
	<path class="st0" d="M366.7,560.1L366.7,560.1c-7.2,0-13.9-2.8-19-7.9c-5.1-5.1-7.9-11.8-7.9-19s2.8-13.9,7.9-19
		c5.1-5.1,11.8-7.9,19-7.9l0,0c7.2,0,13.9,2.8,19,7.9c5.1,5.1,7.9,11.8,7.9,19l0,0c0,7.2-2.8,13.9-7.9,19
		C380.7,557.2,373.9,560.1,366.7,560.1z M366.7,518.8c-3.8,0-7.5,1.5-10.2,4.2c-2.7,2.7-4.2,6.3-4.2,10.2s1.5,7.5,4.2,10.2
		c2.7,2.7,6.3,4.2,10.2,4.2l0,0c3.8,0,7.5-1.5,10.2-4.2c2.7-2.7,4.2-6.3,4.2-10.2l0,0c0-3.8-1.5-7.5-4.2-10.2
		C374.1,520.3,370.5,518.8,366.7,518.8L366.7,518.8z"/>
	<path class="st0" d="M307.4,40.3c0,11.4-9.2,20.6-20.6,20.6s-20.6-9.2-20.6-20.6s9.2-20.6,20.6-20.6S307.4,28.9,307.4,40.3
		L307.4,40.3z"/>
	<path class="st0" d="M227.4,40.3c0,11.4-9.2,20.6-20.6,20.6s-20.6-9.2-20.6-20.6s9.2-20.6,20.6-20.6S227.4,28.9,227.4,40.3z"/>
	<path class="st0" d="M387.4,40.3c0,11.4-9.2,20.6-20.6,20.6s-20.6-9.2-20.6-20.6s9.2-20.6,20.6-20.6S387.4,28.9,387.4,40.3
		L387.4,40.3z"/>
	<path class="st0" d="M286.7,67.2L286.7,67.2c-14.8,0-26.9-12.1-26.9-26.9c0-7.2,2.8-13.9,7.9-19c5.1-5.1,11.8-7.9,19-7.9l0,0
		c7.2,0,13.9,2.8,19,7.9c5.1,5.1,7.9,11.8,7.9,19l0,0c0,7.2-2.8,13.9-7.9,19C300.7,64.4,293.9,67.2,286.7,67.2L286.7,67.2z
		 M286.7,25.9c-3.8,0-7.5,1.5-10.2,4.2s-4.2,6.3-4.2,10.2c0,7.9,6.5,14.4,14.4,14.4l0,0c3.8,0,7.5-1.5,10.2-4.2
		c2.7-2.7,4.2-6.3,4.2-10.2l0,0c0-3.8-1.5-7.5-4.2-10.2C294.2,27.4,290.6,25.9,286.7,25.9L286.7,25.9L286.7,25.9z"/>
	<path class="st0" d="M206.7,67.2L206.7,67.2c-7.2,0-13.9-2.8-19-7.9s-7.9-11.8-7.9-19s2.8-13.9,7.9-19c5.1-5.1,11.8-7.9,19-7.9l0,0
		c14.8,0,26.9,12.1,26.9,26.9l0,0C233.6,55.1,221.6,67.2,206.7,67.2L206.7,67.2z M206.7,25.9c-3.8,0-7.5,1.5-10.2,4.2
		c-2.7,2.7-4.2,6.3-4.2,10.2s1.5,7.5,4.2,10.2c2.7,2.7,6.3,4.2,10.2,4.2c7.9,0,14.4-6.5,14.4-14.4S214.7,25.9,206.7,25.9L206.7,25.9
		L206.7,25.9z M227.4,40.3L227.4,40.3z"/>
	<path class="st0" d="M366.7,67.2L366.7,67.2c-14.8,0-26.9-12.1-26.9-26.9s12.1-26.9,26.9-26.9c7.2,0,13.9,2.8,19,7.9
		c5.1,5.1,7.9,11.8,7.9,19l0,0c0,7.2-2.8,13.9-7.9,19C380.7,64.4,373.9,67.2,366.7,67.2L366.7,67.2z M366.7,25.9
		c-7.9,0-14.4,6.5-14.4,14.4s6.5,14.4,14.4,14.4l0,0c3.8,0,7.5-1.5,10.2-4.2c2.7-2.7,4.2-6.3,4.2-10.2l0,0c0-3.8-1.5-7.5-4.2-10.2
		S370.6,25.9,366.7,25.9L366.7,25.9L366.7,25.9z"/>
	<path class="st0" d="M533.2,307.4c-11.4,0-20.6-9.2-20.6-20.6s9.2-20.6,20.6-20.6s20.6,9.2,20.6,20.6S544.6,307.4,533.2,307.4
		L533.2,307.4z"/>
	<path class="st0" d="M533.2,227.4c-11.4,0-20.6-9.2-20.6-20.6s9.2-20.6,20.6-20.6s20.6,9.2,20.6,20.6S544.6,227.4,533.2,227.4z"/>
	<path class="st0" d="M533.1,387.4c-11.4,0-20.6-9.2-20.6-20.6s9.2-20.6,20.6-20.6s20.6,9.2,20.6,20.6S544.5,387.4,533.1,387.4
		L533.1,387.4z"/>
	<path class="st0" d="M533.2,313.6L533.2,313.6c-7.2,0-13.9-2.8-19-7.9c-5.1-5.1-7.9-11.8-7.9-19s2.8-13.9,7.9-19
		c5.1-5.1,11.8-7.9,19-7.9l0,0c7.2,0,13.9,2.8,19,7.9s7.9,11.8,7.9,19s-2.8,13.9-7.9,19C547.1,310.8,540.3,313.6,533.2,313.6z
		 M533.2,272.4c-3.8,0-7.5,1.5-10.2,4.2c-2.7,2.7-4.2,6.3-4.2,10.2s1.5,7.5,4.2,10.2c2.7,2.7,6.3,4.2,10.2,4.2l0,0
		c3.8,0,7.5-1.5,10.2-4.2c2.7-2.7,4.2-6.3,4.2-10.2s-1.5-7.5-4.2-10.2C540.6,273.8,537,272.4,533.2,272.4L533.2,272.4z"/>
	<path class="st0" d="M533.2,233.6L533.2,233.6c-7.2,0-13.9-2.8-19-7.9c-5.1-5.1-7.9-11.8-7.9-19s2.8-13.9,7.9-19
		c5.1-5.1,11.8-7.9,19-7.9l0,0c14.8,0,26.9,12.1,26.9,26.9S548,233.6,533.2,233.6L533.2,233.6z M533.2,192.4
		c-3.8,0-7.5,1.5-10.2,4.2c-2.7,2.7-4.2,6.3-4.2,10.2s1.5,7.5,4.2,10.2s6.3,4.2,10.2,4.2c7.9,0,14.4-6.5,14.4-14.4
		S541.1,192.3,533.2,192.4L533.2,192.4L533.2,192.4z"/>
	<path class="st0" d="M533.1,393.6L533.1,393.6c-7.2,0-13.9-2.8-19-7.9c-5.1-5.1-7.9-11.8-7.9-19c0-14.8,12.1-26.9,26.9-26.9l0,0
		c14.8,0,26.9,12.1,26.9,26.9c0,7.2-2.8,13.9-7.9,19C547.1,390.8,540.3,393.6,533.1,393.6L533.1,393.6z M533.1,381.1L533.1,381.1
		c3.8,0,7.5-1.5,10.2-4.2c2.7-2.7,4.2-6.3,4.2-10.2c0-7.9-6.5-14.4-14.4-14.4s-14.4,6.5-14.4,14.4c0,3.8,1.5,7.5,4.2,10.2
		C525.7,379.6,529.3,381.1,533.1,381.1L533.1,381.1L533.1,381.1z"/>
	<path class="st0" d="M40.3,307.3c11.4,0,20.6-9.2,20.6-20.6s-9.2-20.6-20.6-20.6s-20.6,9.2-20.6,20.6S28.9,307.3,40.3,307.3z"/>
	<path class="st0" d="M40.3,227.4c11.4,0,20.6-9.2,20.6-20.6s-9.2-20.6-20.6-20.6s-20.6,9.2-20.6,20.6S28.9,227.4,40.3,227.4z"/>
	<path class="st0" d="M40.3,387.3c11.4,0,20.6-9.2,20.6-20.6s-9.2-20.6-20.6-20.6s-20.6,9.2-20.6,20.6S28.9,387.3,40.3,387.3z"/>
	<path class="st0" d="M40.3,313.6L40.3,313.6c-7.2,0-13.9-2.8-19-7.9c-5.1-5.1-7.9-11.8-7.9-19s2.8-13.9,7.9-19
		c5.1-5.1,11.8-7.9,19-7.9l0,0c14.8,0,26.9,12.1,26.9,26.9S55.1,313.6,40.3,313.6L40.3,313.6z M40.3,272.3c-3.8,0-7.5,1.5-10.2,4.2
		c-2.7,2.7-4.2,6.3-4.2,10.2s1.5,7.5,4.2,10.2c2.7,2.7,6.3,4.2,10.2,4.2l0,0c7.9,0,14.4-6.5,14.4-14.4S48.2,272.3,40.3,272.3
		L40.3,272.3L40.3,272.3z"/>
	<path class="st0" d="M40.3,233.6L40.3,233.6c-14.8,0-26.9-12.1-26.9-26.9c0-7.2,2.8-13.9,7.9-19c5.1-5.1,11.8-7.9,19-7.9l0,0
		c14.8,0,26.9,12.1,26.9,26.9S55.1,233.6,40.3,233.6L40.3,233.6z M40.3,221.1c7.9,0,14.4-6.5,14.4-14.4s-6.5-14.4-14.4-14.4l0,0
		c-3.8,0-7.5,1.5-10.2,4.2c-2.7,2.7-4.2,6.3-4.2,10.2C25.9,214.6,32.4,221.1,40.3,221.1L40.3,221.1L40.3,221.1z"/>
	<path class="st0" d="M40.3,393.6L40.3,393.6c-7.2,0-13.9-2.8-19-7.9s-7.9-11.8-7.9-19s2.8-13.9,7.9-19c5.1-5.1,11.8-7.9,19-7.9l0,0
		c7.2,0,13.9,2.8,19,7.9c5.1,5.1,7.9,11.8,7.9,19C67.2,381.5,55.1,393.6,40.3,393.6L40.3,393.6z M40.3,352.3
		c-3.8,0-7.5,1.5-10.2,4.2c-2.7,2.7-4.2,6.3-4.2,10.2c0,7.9,6.5,14.4,14.4,14.4l0,0c7.9,0,14.4-6.5,14.4-14.4
		c0-3.8-1.5-7.5-4.2-10.2C47.8,353.8,44.2,352.3,40.3,352.3L40.3,352.3L40.3,352.3z"/>
	<path class="st0" d="M390.2,444.3H184.3c-29.8,0-54-24.2-54-54V184.3c0-29.8,24.2-54,54-54h205.9c29.8,0,54,24.2,54,54v205.9
		C444.3,420,420,444.3,390.2,444.3L390.2,444.3z M184.3,142.8c-22.9,0-41.5,18.6-41.5,41.5v205.9c0,22.9,18.6,41.5,41.5,41.5h205.9
		c22.9,0,41.5-18.6,41.5-41.5V184.3c0-22.9-18.6-41.5-41.5-41.5H184.3z"/>
	<path class="st1" d="M359,400.4H214.5c-22.8,0-41.4-18.6-41.4-41.4V214.5c0-22.8,18.6-41.4,41.4-41.4H359
		c22.8,0,41.4,18.6,41.4,41.4V359C400.4,381.8,381.8,400.4,359,400.4z M214.5,188.9c-14.1,0-25.6,11.5-25.6,25.6V359
		c0,14.1,11.5,25.6,25.6,25.6H359c14.1,0,25.6-11.5,25.6-25.6V214.5c0-14.1-11.5-25.6-25.6-25.6L214.5,188.9L214.5,188.9z"/>
	<path class="st1" d="M358.7,181h-144c-18.6,0-33.7,15.2-33.7,33.7v144c0,18.5,15.2,33.7,33.7,33.7h144c18.5,0,33.7-15.2,33.7-33.7
		v-144C392.5,196.2,377.3,181,358.7,181L358.7,181z M350.6,322.8c-8.9,16.6-24.4,28.9-42.7,33.8c-5.8,1.5-11.7,2.3-17.5,2.3
		c-12.7,0-25.2-3.6-36.3-10.6c-28-17.7-39.1-54-25.9-84.3c7.6-17.4,21.5-30.6,39.3-37c17-6.1,35.8-5.2,52,2.4L325,219
		c0.7-1.3,2-2,3.5-1.8c1.4,0.1,2.6,1.1,3,2.5l8.9,31.2l-30.5,9.3c-1.4,0.4-2.8,0-3.8-1.1c-0.9-1.1-1.1-2.6-0.4-3.9l4.9-9.1
		c-11.5-5.1-24.8-5.6-36.7-1.3c-12.8,4.6-22.8,14-28.3,26.5c-9.6,22.1-1.6,48.3,18.9,61.1c11.7,7.3,25.4,9.4,38.8,5.9
		c13.1-3.5,24.3-12.4,30.7-24.3l1-1.8l16.7,8.9L350.6,322.8L350.6,322.8z"/>
	<rect x="444.3" y="200.5" class="st1" width="17.6" height="12.5"/>
	<rect x="444.3" y="280.5" class="st1" width="17.6" height="12.5"/>
	<rect x="444.3" y="360.5" class="st1" width="17.6" height="12.5"/>
	<rect x="112.7" y="200.5" class="st1" width="17.6" height="12.5"/>
	<rect x="112.7" y="280.5" class="st1" width="17.6" height="12.5"/>
	<rect x="112.7" y="360.5" class="st1" width="17.6" height="12.5"/>
	<rect x="444.3" y="200.5" class="st1" width="17.6" height="12.5"/>
	<rect x="112.7" y="200.5" class="st1" width="17.6" height="12.5"/>
	<rect x="112.7" y="280.5" class="st1" width="17.6" height="12.5"/>
	<rect x="112.7" y="360.5" class="st1" width="17.6" height="12.5"/>
	<rect x="280.5" y="444.3" class="st1" width="12.5" height="17.6"/>
	<rect x="200.5" y="444.3" class="st1" width="12.5" height="17.6"/>
	<rect x="360.4" y="444.3" class="st1" width="12.5" height="17.6"/>
	<rect x="360.5" y="112.7" class="st1" width="12.5" height="17.6"/>
	<rect x="280.5" y="112.7" class="st1" width="12.5" height="17.6"/>
	<rect x="200.5" y="113.2" class="st1" width="12.5" height="17.6"/>
</g>
</svg>
