<?xml version="1.0" encoding="UTF-8"?>
<svg id="Ebene_1" data-name="Ebene 1" xmlns="http://www.w3.org/2000/svg" viewBox="0 0 546.66 546.66">
  <defs>
    <style>
      .cls-1 {
        fill: #c00000;
      }

      .cls-2 {
        fill: #606060;
      }

      .cls-3 {
        fill: #6e0000;
      }
    </style>
  </defs>
  <path class="cls-1" d="m435.29,233.34c-1.48-23.81-7.77-46.57-18.07-67.14l46.72-35.94-40.74-52.93-46.71,35.94c-17.25-15.22-37.64-27.14-60.27-34.65l7.61-58.48-66.23-8.62-7.61,58.48c-23.8,1.47-46.56,7.76-67.12,18.07l-35.96-46.72-52.93,40.74,35.96,46.71c-15.23,17.25-27.14,37.64-34.67,60.27l-58.48-7.61-8.62,66.23,58.48,7.61c1.48,23.8,7.77,46.56,18.07,67.12l-46.71,35.96,40.73,52.93,46.72-35.96c17.24,15.23,37.63,27.14,60.27,34.67l-7.62,58.46,66.23,8.62,7.61-58.46c15.47-.97,30.52-3.96,44.79-8.78l-2.57-3.54-1.27-1.72-32.48-44.43c-4.08.74-8.23,1.25-12.43,1.54-7.64.53-15.45.3-23.33-.73-64.51-8.39-110-67.5-101.6-131.99,8.39-64.51,67.5-110,132.01-101.6,64.51,8.39,109.99,67.5,101.6,132.01-1.27,9.67-3.66,18.91-7.04,27.61l-19.58-26.17c.3-1.59.54-3.21.75-4.82,6.53-50.14-28.96-96.24-79.09-102.77-50.15-6.52-96.25,28.96-102.78,79.11-6.52,50.14,28.96,96.24,79.11,102.77.46.05.92.12,1.36.16,4.46.53,8.88.7,13.24.58h.01l-3.74-5.12-.81-1.1c-3.07-.07-6.15-.3-9.27-.7h-.07c-1.45-.2-2.9-.43-4.32-.69-44.47-8.12-75.23-49.78-69.33-95.11,6.1-46.81,48.98-79.81,95.79-73.72,46.34,6.02,79.15,48.12,73.88,94.38-.04.47-.09.94-.16,1.41-.57,4.36-1.45,8.62-2.64,12.71l4.55,6.24,17.84,24.4,32.82,44.87,3.84,5.25c2.49-3.31,4.86-6.73,7.1-10.25,7.66-11.97,13.93-25.01,18.53-38.88l58.48,7.61,8.62-66.22-58.48-7.61h0Z"/>
  <g>
    <path class="cls-1" d="m350.05,260.83c.3-1.59.54-3.21.75-4.82,6.53-50.14-28.96-96.24-79.09-102.77-50.15-6.52-96.25,28.96-102.78,79.11-6.52,50.14,28.96,96.24,79.11,102.77.46.05.92.12,1.36.16,4.46.53,8.88.7,13.24.58h.01l-3.74-5.12-.81-1.1c-3.07-.07-6.15-.3-9.27-.7h-.07c-1.45-.2-2.9-.43-4.32-.69-44.47-8.12-75.23-49.78-69.33-95.11,6.1-46.81,48.98-79.81,95.79-73.72,46.34,6.02,79.15,48.12,73.88,94.38-.04.47-.09.94-.16,1.41-.57,4.36-1.45,8.62-2.64,12.71l4.55,6.24,17.84,24.4c1.95-3.73,3.7-7.6,5.25-11.57l-19.58-26.17h0Z"/>
    <path class="cls-1" d="m376.68,259.39c-1.27,9.67-3.66,18.91-7.04,27.61l-19.58-26.17c.3-1.59.54-3.21.75-4.82,6.53-50.14-28.96-96.24-79.09-102.77-50.15-6.52-96.25,28.96-102.78,79.11-6.52,50.14,28.96,96.24,79.11,102.77.46.05.92.12,1.36.16l18.6,26.42c-7.64.53-15.45.3-23.33-.73-64.51-8.39-110-67.5-101.6-131.99,8.39-64.51,67.5-110,132.01-101.6,64.51,8.39,109.99,67.5,101.6,132.01h0Z"/>
    <path class="cls-1" d="m280.41,360.17c-4.08.74-8.23,1.25-12.43,1.54l-18.6-26.42c4.46.53,8.88.7,13.24.58h.01l17.78,24.31Z"/>
  </g>
  <path class="cls-1" d="m271.71,153.24c-50.15-6.52-96.25,28.96-102.78,79.11-6.52,50.14,28.96,96.24,79.11,102.77.46.05.92.12,1.36.16,4.46.53,8.88.7,13.24.58h.01l-3.74-5.12-.81-1.1-4.74-6.48c-1.24-.09-2.48-.23-3.72-.39-43.32-5.64-73.99-45.49-68.35-88.82,5.64-43.32,45.48-73.99,88.8-68.35,43.34,5.63,73.99,45.48,68.36,88.8-.31,2.37-.71,4.7-1.23,6.99h0v.03l4.77,6.5,4.55,6.24c1.49-4.3,2.67-8.75,3.51-13.33.3-1.59.54-3.21.75-4.82,6.53-50.14-28.96-96.24-79.09-102.77h-.01Zm0,0c-50.15-6.52-96.25,28.96-102.78,79.11-6.52,50.14,28.96,96.24,79.11,102.77.46.05.92.12,1.36.16,4.46.53,8.88.7,13.24.58h.01l-3.74-5.12-.81-1.1-4.74-6.48c-1.24-.09-2.48-.23-3.72-.39-43.32-5.64-73.99-45.49-68.35-88.82,5.64-43.32,45.48-73.99,88.8-68.35,43.34,5.63,73.99,45.48,68.36,88.8-.31,2.37-.71,4.7-1.23,6.99h0v.03l4.77,6.5,4.55,6.24c1.49-4.3,2.67-8.75,3.51-13.33.3-1.59.54-3.21.75-4.82,6.53-50.14-28.96-96.24-79.09-102.77h-.01Zm222.86,81.53l-53.45-6.95c-1.89-20.81-7.29-40.87-16.09-59.77l42.71-32.86c2.72-2.1,3.23-6.01,1.13-8.74l-40.73-52.91c-1.01-1.32-2.49-2.17-4.13-2.38-1.64-.22-3.3.23-4.61,1.24l-42.71,32.86c-16.01-13.35-34.02-23.7-53.64-30.84l6.95-53.45c.44-3.42-1.95-6.55-5.37-6.99l-66.22-8.62c-3.41-.44-6.53,1.97-6.98,5.37l-6.96,53.45c-20.81,1.89-40.86,7.27-59.76,16.09l-32.87-42.71c-1-1.31-2.49-2.17-4.12-2.38-1.64-.2-3.3.24-4.61,1.24l-52.93,40.74c-2.72,2.1-3.23,6.01-1.13,8.74l32.86,42.69c-13.36,16.01-23.72,34.02-30.85,53.65l-53.45-6.96c-3.41-.44-6.53,1.97-6.98,5.37l-8.62,66.23c-.44,3.41,1.95,6.53,5.37,6.98l53.45,6.96c1.87,20.79,7.27,40.86,16.08,59.76l-42.71,32.86c-2.72,2.1-3.23,6.02-1.13,8.74l40.73,52.93c1.01,1.31,2.5,2.17,4.13,2.37,1.64.22,3.3-.23,4.61-1.24l42.71-32.86c16.01,13.36,34.02,23.72,53.64,30.85l-6.95,53.45c-.44,3.41,1.95,6.53,5.37,6.98l66.22,8.62c3.41.44,6.55-1.97,6.98-5.37l6.96-53.45c14.8-1.33,29.24-4.46,43.14-9.32l-3.87-5.28-2.57-3.54-1.27-1.72h-.01c-4.05,1.32-8.15,2.48-12.27,3.46-9.49,2.3-19.19,3.76-29.06,4.36-2.98.19-5.4,2.45-5.79,5.41l-6.8,52.29-53.87-7.02,6.8-52.29c.39-2.95-1.37-5.78-4.22-6.71-21.56-7.16-41.1-18.41-58.1-33.43-2.24-1.97-5.56-2.09-7.92-.26l-41.79,32.15-33.13-43.06,41.78-32.15c2.37-1.82,3.11-5.06,1.78-7.73-10.17-20.27-16.03-42.05-17.43-64.72-.19-2.98-2.45-5.4-5.41-5.79l-52.29-6.8,7-53.88,52.31,6.81c2.95.38,5.76-1.39,6.71-4.22,7.16-21.56,18.41-41.12,33.41-58.11,1.98-2.24,2.09-5.55.27-7.92l-32.15-41.78,43.06-33.13,32.15,41.78c1.82,2.36,5.06,3.11,7.73,1.76,20.26-10.15,42.03-16.01,64.72-17.43,2.98-.18,5.4-2.45,5.79-5.4l6.8-52.31,53.87,7.02-6.8,52.29c-.39,2.96,1.37,5.78,4.22,6.72,21.56,7.16,41.1,18.41,58.1,33.41,2.24,1.98,5.56,2.09,7.93.27l41.78-32.16,33.13,43.06-41.78,32.16c-2.37,1.82-3.11,5.05-1.76,7.72,10.15,20.27,16.01,42.05,17.41,64.72.19,2.98,2.46,5.41,5.41,5.79l52.31,6.81-7.02,53.87-52.29-6.8c-2.96-.39-5.78,1.37-6.72,4.2-4.17,12.57-9.72,24.43-16.62,35.51-2.17,3.53-4.48,6.98-6.94,10.33l3.84,5.25,3.85,5.25v-.03c11.04-14.44,19.76-30.36,25.99-47.53l53.45,6.96c3.42.44,6.55-1.97,6.99-5.37l8.62-66.22c.44-3.42-1.97-6.55-5.37-6.99h0Zm-222.86-81.53c-50.15-6.52-96.25,28.96-102.78,79.11-6.52,50.14,28.96,96.24,79.11,102.77.46.05.92.12,1.36.16,4.46.53,8.88.7,13.24.58h.01l-3.74-5.12-.81-1.1-4.74-6.48c-1.24-.09-2.48-.23-3.72-.39-43.32-5.64-73.99-45.49-68.35-88.82,5.64-43.32,45.48-73.99,88.8-68.35,43.34,5.63,73.99,45.48,68.36,88.8-.31,2.37-.71,4.7-1.23,6.99h0v.03l4.77,6.5,4.55,6.24c1.49-4.3,2.67-8.75,3.51-13.33.3-1.59.54-3.21.75-4.82,6.53-50.14-28.96-96.24-79.09-102.77h-.01Z"/>
  <polygon class="cls-2" points="258.91 330.74 262.65 335.86 262.64 335.86 258.91 330.74"/>
  <polygon class="cls-2" points="280.43 360.17 312.91 404.6 312.9 404.6 280.43 360.17"/>
  <g>
    <path class="cls-3" d="m482.06,448.15c-4.54-6.21-10.1-11.2-16.3-14.96-10.61-6.41-23.06-9.12-35.28-7.81l-10.49-14.34-3.68-5.02-3.68-5.04-64.94-88.8-16.01-21.9-3.87-5.29-3.93-5.37-9.24-12.63c4.96-11.27,6.14-23.96,3.22-36.03-1.68-7.03-4.75-13.84-9.29-20.04-12.12-16.59-31.59-24.61-50.68-22.88l25.28,34.56c1.94,2.65,3.37,5.52,4.27,8.5,3.61,11.51-.28,24.51-10.56,32.03-5.16,3.77-11.15,5.59-17.09,5.59s-11.72-1.78-16.63-5.24c-2.56-1.75-4.86-3.99-6.8-6.64l-25.27-34.56c-7.43,17.64-5.7,38.64,6.44,55.22,4.54,6.21,10.1,11.22,16.3,14.98,10.61,6.41,23.06,9.12,35.28,7.81l9.33,12.75.54.74,3.38,4.63,3.87,5.28,13.44,18.38,2.56,3.49,30.87,42.23,12.22,16.7,29.9,40.87,9.74,13.32c-4.96,11.26-6.14,23.93-3.25,36,1.78,7.38,5.08,14.53,9.99,20.98,18.8,24.66,53.45,29.57,78.38,11.14s30.32-53.57,11.99-78.64h0Zm-71.19,47.35l-7.77-10.63,13.6-30.83,33.51-3.62,7.77,10.63,12.11,16.56-13.6,30.83-33.49,3.62-12.12-16.56h0Z"/>
    <path class="cls-3" d="m473.78,473.94l-12.12-16.56-7.77-10.63c-1.32-1.8-3.49-2.76-5.7-2.52l-33.49,3.62c-2.22.24-4.13,1.64-5.04,3.68l-13.6,30.83c-.9,2.03-.65,4.39.66,6.2l7.77,10.63,12.12,16.56c1.19,1.62,3.06,2.56,5.02,2.56.23,0,.46-.01.67-.04l33.51-3.62c2.21-.24,4.12-1.64,5.02-3.68l13.62-30.83c.89-2.03.63-4.39-.67-6.2Zm-49.24,31.54l-9.99-13.66-5.64-7.73,10.71-24.24,26.34-2.86,5.64,7.73,9.99,13.67-10.69,24.24-26.36,2.84h0Zm49.24-31.54l-12.12-16.56-7.77-10.63c-1.32-1.8-3.49-2.76-5.7-2.52l-33.49,3.62c-2.22.24-4.13,1.64-5.04,3.68l-13.6,30.83c-.9,2.03-.65,4.39.66,6.2l7.77,10.63,12.12,16.56c1.19,1.62,3.06,2.56,5.02,2.56.23,0,.46-.01.67-.04l33.51-3.62c2.21-.24,4.12-1.64,5.02-3.68l13.62-30.83c.89-2.03.63-4.39-.67-6.2Zm-49.24,31.54l-9.99-13.66-5.64-7.73,10.71-24.24,26.34-2.86,5.64,7.73,9.99,13.67-10.69,24.24-26.36,2.84h0Zm49.24-31.54l-12.12-16.56-7.77-10.63c-1.32-1.8-3.49-2.76-5.7-2.52l-33.49,3.62c-2.22.24-4.13,1.64-5.04,3.68l-13.6,30.83c-.9,2.03-.65,4.39.66,6.2l7.77,10.63,12.12,16.56c1.19,1.62,3.06,2.56,5.02,2.56.23,0,.46-.01.67-.04l33.51-3.62c2.21-.24,4.12-1.64,5.02-3.68l13.62-30.83c.89-2.03.63-4.39-.67-6.2Zm-49.24,31.54l-9.99-13.66-5.64-7.73,10.71-24.24,26.34-2.86,5.64,7.73,9.99,13.67-10.69,24.24-26.36,2.84h0Zm49.24-31.54l-12.12-16.56-7.77-10.63c-1.32-1.8-3.49-2.76-5.7-2.52l-33.49,3.62c-2.22.24-4.13,1.64-5.04,3.68l-13.6,30.83c-.9,2.03-.65,4.39.66,6.2l7.77,10.63,12.12,16.56c1.19,1.62,3.06,2.56,5.02,2.56.23,0,.46-.01.67-.04l33.51-3.62c2.21-.24,4.12-1.64,5.02-3.68l13.62-30.83c.89-2.03.63-4.39-.67-6.2Zm-49.24,31.54l-9.99-13.66-5.64-7.73,10.71-24.24,26.34-2.86,5.64,7.73,9.99,13.67-10.69,24.24-26.36,2.84h0Zm61.21-61.01c-7.37-10.06-17.55-17.59-29.02-21.79-7.77-2.86-16.13-4.2-24.62-3.78l-8.54-11.66-3.66-5.02-37.79-51.67-31.76-43.43-16.35-22.34-3.97-5.44-4.07-5.56-5.6-7.66c2.95-7.95,4.23-16.34,3.87-24.61-.53-12.19-4.58-24.15-11.97-34.26-11.76-16.07-30.67-25.67-50.6-25.67-1.89,0-3.8.09-5.67.26-2.24.22-4.19,1.6-5.12,3.65s-.67,4.43.65,6.24l25.28,34.57c1.97,2.69,3.26,5.68,3.89,8.75,1.78,8.48-1.4,17.62-8.83,23.06-3.93,2.87-8.57,4.39-13.41,4.39-3.97,0-7.84-1.05-11.22-2.98-2.79-1.56-5.25-3.72-7.18-6.36l-25.28-34.56c-1.32-1.82-3.52-2.77-5.75-2.52-2.22.27-4.15,1.71-5.01,3.77-8.5,20.17-5.76,43.68,7.14,61.33,7.37,10.07,17.53,17.59,29.02,21.79,7.77,2.86,16.13,4.19,24.62,3.78l5.71,7.81,4.05,5.55,3.99,5.44,16.31,22.3,31.18,42.64,3.76,5.13,9.27,12.69,37.48,51.24c-2.96,7.96-4.24,16.31-3.88,24.58.53,12.58,4.86,24.94,12.75,35.3,11.97,15.73,30.1,24.74,49.72,24.74h.01c13.45,0,26.34-4.27,37.29-12.36,27.62-20.42,33.59-59.59,13.32-87.32h0Zm-50.62,87.23c-15.7,0-30.22-7.23-39.82-19.82-.98-1.29-1.9-2.63-2.73-3.99-8.67-13.98-9.98-31.47-3.26-46.72.89-2.03.63-4.39-.67-6.18l-9.76-13.35-3.68-5.04-25.95-35.49-42.54-58.17-15.76-21.56-3.77-5.16-3.84-5.24-10.53-14.41c-1.19-1.62-3.06-2.56-5.04-2.56-.22,0-.44.01-.66.04-1.78.19-3.58.28-5.36.28-14.69,0-28.7-6.49-38.17-17.56-.83-.97-1.62-1.97-2.37-2.99-8.11-11.08-11.23-24.55-9.05-37.68l17.83,24.38c1.89,2.59,4.09,4.86,6.57,6.8,6.15,4.88,13.87,7.64,21.88,7.64,7.51,0,14.69-2.36,20.77-6.8,13.06-9.55,17.62-26.46,12.15-40.9-1.09-2.91-2.59-5.7-4.5-8.32l-17.8-24.34c13.17,1.98,25.2,9.14,33.14,20.01.75,1.04,1.47,2.09,2.13,3.16,8.65,13.95,9.95,31.51,3.26,46.71-.89,2.03-.63,4.39.67,6.2l10.48,14.33,3.84,5.24,3.77,5.17,15.77,21.56,64.23,87.82,3.68,5.04,3.68,5.02,10.4,14.22c1.32,1.79,3.49,2.75,5.7,2.52,1.78-.19,3.58-.3,5.36-.3,14.69,0,28.71,6.52,38.17,17.58.83.96,1.62,1.95,2.37,2.98,16.24,22.21,11.46,53.59-10.67,69.95-8.78,6.49-19.12,9.93-29.88,9.93h-.01Zm38.65-57.76l-12.12-16.56-7.77-10.63c-1.32-1.8-3.49-2.76-5.7-2.52l-33.49,3.62c-2.22.24-4.13,1.64-5.04,3.68l-13.6,30.83c-.9,2.03-.65,4.39.66,6.2l7.77,10.63,12.12,16.56c1.19,1.62,3.06,2.56,5.02,2.56.23,0,.46-.01.67-.04l33.51-3.62c2.21-.24,4.12-1.64,5.02-3.68l13.62-30.83c.89-2.03.63-4.39-.67-6.2h0Zm-49.24,31.54l-9.99-13.66-5.64-7.73,10.71-24.24,26.34-2.86,5.64,7.73,9.99,13.67-10.69,24.24-26.36,2.84h0Zm-78.19-193.31l-16.01-21.9c-1.28,1.75-2.6,3.46-3.99,5.12l15.77,21.56,64.23,87.82,4.94-3.8-64.94-88.8h0Zm127.43,161.77l-12.12-16.56-7.77-10.63c-1.32-1.8-3.49-2.76-5.7-2.52l-33.49,3.62c-2.22.24-4.13,1.64-5.04,3.68l-13.6,30.83c-.9,2.03-.65,4.39.66,6.2l7.77,10.63,12.12,16.56c1.19,1.62,3.06,2.56,5.02,2.56.23,0,.46-.01.67-.04l33.51-3.62c2.21-.24,4.12-1.64,5.02-3.68l13.62-30.83c.89-2.03.63-4.39-.67-6.2h0Zm-49.24,31.54l-9.99-13.66-5.64-7.73,10.71-24.24,26.34-2.86,5.64,7.73,9.99,13.67-10.69,24.24-26.36,2.84h0Zm49.24-31.54l-12.12-16.56-7.77-10.63c-1.32-1.8-3.49-2.76-5.7-2.52l-33.49,3.62c-2.22.24-4.13,1.64-5.04,3.68l-13.6,30.83c-.9,2.03-.65,4.39.66,6.2l7.77,10.63,12.12,16.56c1.19,1.62,3.06,2.56,5.02,2.56.23,0,.46-.01.67-.04l33.51-3.62c2.21-.24,4.12-1.64,5.02-3.68l13.62-30.83c.89-2.03.63-4.39-.67-6.2h0Zm-49.24,31.54l-9.99-13.66-5.64-7.73,10.71-24.24,26.34-2.86,5.64,7.73,9.99,13.67-10.69,24.24-26.36,2.84h0Z"/>
  </g>
  <polygon class="cls-1" points="410.6 341.74 404.91 353.92 404.89 353.95 401.03 348.69 397.19 343.44 364.38 298.57 346.54 274.16 341.97 267.93 337.22 261.42 337.22 261.41 337.23 261.4 343.43 252 344.77 253.8 350.05 260.83 369.64 287 404.13 333.11 408.14 338.44 410.6 341.74"/>
  <polygon class="cls-1" points="314.16 406.32 303.98 412.83 300.61 408.06 267.98 361.7 249.38 335.28 244.44 328.25 244.36 328.14 248.77 328.92 248.82 328.94 258.89 330.74 262.65 335.86 280.41 360.17 312.91 404.6 314.16 406.32"/>
  <path class="cls-3" d="m255.24,343.6c5.51,7.84-.85,18.63-10.34,17.41l-.24-.03c-64.51-8.39-110-67.5-101.6-131.99,8.39-64.51,67.5-110,132.01-101.6,64.51,8.39,109.99,67.5,101.6,132.01-.2,1.54-.43,3.04-.69,4.55-1.64,9.7-14.13,12.67-20.01,4.81l-3.1-4.13c-1.78-2.37-2.52-5.36-2.11-8.3l.04-.31c6.53-50.14-28.96-96.24-79.09-102.77-50.15-6.52-96.25,28.96-102.78,79.11-6.32,48.63,28.13,93.6,75.97,102.23,2.92.53,5.52,2.15,7.23,4.58l3.12,4.44h0Z"/>
  <rect class="cls-1" x="249.38" y="361.1" width="27.1" height="7.07"/>
  <path class="cls-3" d="m435.25,513.37c-17.71,0-32.12-14.41-32.12-32.12s14.41-32.12,32.12-32.12,32.12,14.41,32.12,32.12-14.41,32.12-32.12,32.12Zm0-54.81c-12.51,0-22.69,10.18-22.69,22.69s10.18,22.69,22.69,22.69,22.69-10.18,22.69-22.69-10.18-22.69-22.69-22.69Z"/>
</svg>