<?xml version="1.0" encoding="utf-8"?>
<!-- Generator: Adobe Illustrator 27.3.1, SVG Export Plug-In . SVG Version: 6.00 Build 0)  -->
<svg version="1.1" id="Ebene_1" xmlns="http://www.w3.org/2000/svg" xmlns:xlink="http://www.w3.org/1999/xlink" x="0px" y="0px"
	 viewBox="0 0 546.7 546.7" style="enable-background:new 0 0 546.7 546.7;" xml:space="preserve">
<style type="text/css">
	.st0{fill:#C00000;}
	.st1{fill:#6E0000;}
</style>
<path class="st0" d="M395.9,190.1h-64.5c-5.5,0-10,4.5-10,10v90.7H168.7v0.1h-13v-0.1h-12v0.1h-21.3c-5.5,0-10,4.5-10,10v50.5
	c0,11.2,9.1,20.2,20.2,20.2h20.8c3.3,22.8,22.9,40.4,46.6,40.4s43.4-17.6,46.6-40.4h75.2c3.3,22.8,22.9,40.4,46.6,40.4
	s43.3-17.6,46.6-40.4h20.8c11.2,0,20.2-9,20.2-20.2v-109c0-5.4-2.1-10.5-5.9-14.3l-32.5-32.5c-3.8-3.8-8.8-5.5-14.2-5.5
	 M196.4,398.4c-15.6-1.6-28.2-14.2-29.8-29.8c-2.3-21.5,15.7-39.4,37.2-37.2c15.6,1.7,28.2,14.2,29.8,29.8
	C235.9,382.6,217.9,400.6,196.4,398.4L196.4,398.4z M368.6,398.6c-19.4,0-35-16.5-33.6-36.1c1.2-16.6,14.6-30,31.2-31.1
	c19.6-1.4,36.1,14.3,36.1,33.6S387.1,398.6,368.6,398.6L368.6,398.6z M442.7,260.5c0,5.5-4.5,10-10,10h-37c-2.6,0-5.2-1-7.1-2.9l0,0
	l-10.4-10.4c-1.9-1.9-2.9-4.4-2.9-7.1v-37c0-5.5,4.5-10,10-10h18.1c1.8,0,3.5,0.7,4.8,2l31.6,31.6l1,1c1.3,1.3,2,3,2,4.8
	L442.7,260.5L442.7,260.5z"/>
<path class="st1" d="M490.8,158.9l-24.6-24.6c-2.3-2.3-6.3-0.6-6.2,2.6l0.3,17.7H337.5c-3.5,0-6.4,2.9-6.4,6.4s2.9,6.4,6.4,6.4
	h123.1l0.3,17.8c0.1,3.2,3.9,4.8,6.2,2.5l23.7-23.7C492.2,162.6,492.2,160.3,490.8,158.9L490.8,158.9z"/>
<path class="st1" d="M233.8,364.9c0,18.6-15.1,33.7-33.7,33.7s-33.7-15.1-33.7-33.7s15.1-33.7,33.7-33.7S233.8,346.3,233.8,364.9z"
	/>
<path class="st1" d="M88,154.7h38.5c3.3,0,6-2.7,6-6s-2.7-6-6-6H88c-3.3,0-6,2.7-6,6S84.7,154.7,88,154.7z"/>
<path class="st1" d="M132.5,173.7c0-3.3-2.7-6-6-6H60.8c-3.3,0-6,2.7-6,6s2.7,6,6,6h65.7C129.9,179.7,132.5,177,132.5,173.7
	L132.5,173.7z"/>
<path class="st1" d="M415.7,366.3c0,26-21.1,47.1-47.1,47.1s-47.1-21.1-47.1-47.1s21.1-47.1,47.1-47.1S415.7,340.3,415.7,366.3z"/>
<path class="st1" d="M415.7,366.3c0,26-21.1,47.1-47.1,47.1s-47.1-21.1-47.1-47.1s21.1-47.1,47.1-47.1S415.7,340.3,415.7,366.3z"/>
<path class="st1" d="M247.2,366.3c0,26-21.1,47.1-47.1,47.1S153,392.3,153,366.3s21.1-47.1,47.1-47.1S247.2,340.3,247.2,366.3z"/>
<path class="st1" d="M456.2,331.2h-16.7c-3.7,0-6.7,3-6.7,6.7s3,6.7,6.7,6.7h16.7"/>
<path class="st1" d="M456.2,304.2H426c-3.7,0-6.7,3-6.7,6.7s3,6.7,6.7,6.7h30.2"/>
<path class="st1" d="M281.8,142.7h-128c-5.5,0-10,4.5-10,10v138.1h12v0.1h13v-0.1h123.1V152.7C291.8,147.1,287.3,142.7,281.8,142.7z
	"/>
</svg>
