<?xml version="1.0" encoding="UTF-8"?>
<svg id="a" data-name="Ebene 1" xmlns="http://www.w3.org/2000/svg" viewBox="0 0 242.41 223.2">
  <g>
    <path d="m42.13,141.16v-12.49l18.25-15.28c8.36-7.01,13.21-11.23,13.21-16.9,0-4.58-3.6-7.19-8.45-7.19s-8.63,2.61-10.25,7.73l-14.74-3.33c2.52-10.34,11.95-16.36,24.9-16.36,14.56,0,24.09,7.19,24.09,19.06,0,9.89-5.93,15.82-18.52,25.62l-5.66,4.58v.81h24.63v13.75h-47.46Z" style="fill: #292929;"/>
    <path d="m124.28,141.16v-10.7h-29.66v-13.93l28.49-38.29h16.72v39.19h8v13.03h-8v10.7h-15.55Zm-14.92-23.73h14.92v-20.31l-14.92,20.31Z" style="fill: #292929;"/>
  </g>
  <path d="m183.91,123.72v17.44h-9.39v-15.11c0-3.78-1.72-5.78-4.72-5.78-3.56,0-5.72,2.89-5.72,6.89v14h-9.39v-38.89h9.39v8.44l-.28,6.61h.78c2.33-3.39,5.61-5.06,9.5-5.06,6.17,0,9.83,3.94,9.83,11.44Z" style="fill: #292929;"/>
  <path d="m111.6,223.2C50.06,223.2,0,173.13,0,111.6S50.06,0,111.6,0s111.6,50.06,111.6,111.6h-14c0-53.82-43.78-97.6-97.6-97.6S14,57.78,14,111.6s43.78,97.6,97.6,97.6v14Z" style="fill: #c01718;"/>
  <path d="m190.9,113.45l23.1,23.1c1.22,1.22,3.19,1.22,4.4,0l23.1-23.1c1.96-1.96.57-5.31-2.2-5.31h-46.2c-2.77,0-4.16,3.35-2.2,5.31Z" style="fill: #c01718;"/>
  <path d="m108.39,223.15c-26.48-.74-51.98-10.97-71.61-28.75C-10.79,151.33-12.15,77.52,32.69,32.69,53.76,11.61,81.79,0,111.6,0s57.83,11.61,78.91,32.69l-9.9,9.9c-38.05-38.05-99.97-38.05-138.02,0-38.05,38.05-38.05,99.97,0,138.03,36.9,36.9,96.25,38.02,134.51,3.34,2.01-1.82,5.07-1.78,6.99.13l2.78,2.78c2.02,2.02,1.98,5.33-.13,7.25-21.38,19.51-49.1,29.85-78.35,29.04Z" style="fill: #c01718;"/>
</svg>