<?xml version="1.0" encoding="UTF-8"?>
<svg id="b" data-name="Expanded" xmlns="http://www.w3.org/2000/svg" viewBox="0 0 76.92 76.92">
  <path d="m64.91,52.53l-7.58-7.58c-.24-.25-.51-.46-.79-.65-.04-.03-.09-.05-.13-.07-.8-.5-1.71-.78-2.68-.78s-1.91.29-2.72.8c-.03.02-.06.03-.09.05-.28.19-.55.4-.79.65l-5.06,5.06c-1.2,1.2-3.16,1.19-4.37,0l-12.53-12.54c-1.2-1.21-1.21-3.17-.01-4.37l1.88-1.87s.02-.01.02-.02l3.16-3.17c.25-.24.46-.51.65-.79.03-.04.04-.09.07-.13.5-.8.78-1.72.78-2.68s-.28-1.89-.78-2.69c-.03-.04-.04-.08-.07-.12-.19-.28-.4-.55-.65-.79l-7.58-7.58c-.24-.25-.52-.47-.8-.66-.05-.03-.1-.05-.15-.08-.24-.15-.49-.29-.75-.4-.02,0-.03,0-.04-.01-.6-.24-1.25-.37-1.91-.37-.98,0-1.92.28-2.73.79-.04.03-.08.04-.12.07-.29.19-.56.41-.81.66-.54.54-1.06,1.1-1.55,1.68-.5.59-.97,1.19-1.41,1.82-3.19,4.51-4.88,9.85-4.88,15.43,0,7.17,2.78,13.89,7.84,18.94l8.71,8.71c5.2,5.2,12.05,7.87,18.95,7.87,5.36,0,10.76-1.61,15.43-4.91,1.24-.89,2.41-1.88,3.5-2.96.97-.99,1.51-2.29,1.51-3.66s-.54-2.66-1.52-3.65ZM18.05,16.57c.12-.16.25-.31.38-.47.42-.49.86-.97,1.31-1.43.62-.62,1.43-.93,2.25-.93s1.62.31,2.24.93l7.58,7.58c.15.15.28.31.39.48.02.03.03.05.04.07.63,1.01.62,2.28,0,3.28-.02.02-.02.04-.04.06-.11.17-.24.34-.39.49l-2.46,2.45-11.83-11.83c.17-.23.34-.46.53-.68Zm10.4,41.86l-8.71-8.71c-4.68-4.67-7.25-10.9-7.25-17.53,0-4.76,1.34-9.32,3.86-13.28l11.59,11.59-1.19,1.19c-1.98,1.97-1.98,5.2,0,7.19l12.54,12.54c1.99,1.98,5.22,1.98,7.19,0l1.19-1.19,11.58,11.58c-9.76,6.22-22.52,4.89-30.8-3.38Zm35.05,0c-.46.45-.94.89-1.43,1.31-.15.13-.32.26-.47.39-.22.18-.45.35-.68.52l-11.83-11.83,2.45-2.46c1.17-1.17,3.21-1.17,4.38,0l7.58,7.58c.6.6.93,1.4.93,2.24s-.33,1.64-.93,2.25Z"/>
  <path d="m64.43,56.18c0,.84-.33,1.64-.93,2.25-.46.45-.94.89-1.43,1.31-.15.13-.32.26-.47.39-.22.18-.45.35-.68.52l-11.83-11.83,2.45-2.46c1.17-1.17,3.21-1.17,4.38,0l7.58,7.58c.6.6.93,1.4.93,2.24Z" style="fill: #eee;"/>
  <path d="m32.24,26.08s-.02.04-.04.06c-.11.17-.24.34-.39.49l-2.46,2.45-11.83-11.83c.17-.23.34-.46.53-.68.12-.16.25-.31.38-.47.42-.49.86-.97,1.31-1.43.62-.62,1.43-.93,2.25-.93s1.62.31,2.24.93l7.58,7.58c.15.15.28.31.39.48.02.03.03.05.04.07.63,1.01.62,2.28,0,3.28Z" style="fill: #eee;"/>
  <path d="m59.25,61.81c-9.76,6.22-22.52,4.89-30.8-3.38l-8.71-8.71c-4.68-4.67-7.25-10.9-7.25-17.53,0-4.76,1.34-9.32,3.86-13.28l11.59,11.59-1.19,1.19c-1.98,1.97-1.98,5.2,0,7.19l12.54,12.54c1.99,1.98,5.22,1.98,7.19,0l1.19-1.19,11.58,11.58Z" style="fill: #c00000;"/>
  <path d="m63.07,16.35c-2.52-2.85-5.98-4.48-9.76-4.6-3.72-.13-7.38,1.33-10.01,3.96-4.1,4.1-5.13,10.26-2.64,15.45l-1.58,5.9c-.16.58,0,1.19.43,1.61.32.32.74.49,1.18.49.14,0,.29-.01.44-.05l5.9-1.58c5.6,2.69,12.24,1.26,16.27-3.55,4.26-5.08,4.15-12.66-.23-17.63Zm-1.3,16.34c-3.51,4.19-9.34,5.38-14.18,2.88-.22-.11-.48-.14-.72-.07l-5.72,1.53,1.54-5.72c.06-.24.03-.5-.08-.72-2.31-4.48-1.47-9.89,2.1-13.46,2.19-2.2,5.08-3.39,8.16-3.39.13,0,.25,0,.38,0,3.22.1,6.17,1.49,8.32,3.92,3.74,4.24,3.82,10.7.2,15.02Z"/>
  <path d="m61.57,17.67c-2.15-2.43-5.1-3.82-8.32-3.92-.13,0-.25,0-.38,0-3.08,0-5.97,1.19-8.16,3.39-3.57,3.57-4.41,8.98-2.1,13.46.11.22.14.48.08.72l-1.54,5.72,5.72-1.53c.24-.07.5-.04.72.07,4.84,2.5,10.67,1.31,14.18-2.88,3.62-4.32,3.54-10.78-.2-15.02Zm-2.9,14.45c-.14.39-.52.65-.94.65h-10.02c-.42,0-.79-.26-.94-.65-.26-.72-.4-1.47-.4-2.23,0-2.07,1.02-3.97,2.65-5.14-.56-.76-.9-1.69-.9-2.71,0-2.54,2.07-4.6,4.6-4.6s4.61,2.06,4.61,4.6c0,1.02-.35,1.95-.91,2.71,1.64,1.17,2.65,3.07,2.65,5.14,0,.76-.13,1.51-.4,2.23Z" style="fill: #eee;"/>
  <path d="m56.42,24.75c.56-.76.91-1.69.91-2.71,0-2.54-2.07-4.6-4.61-4.6s-4.6,2.06-4.6,4.6c0,1.02.34,1.95.9,2.71-1.63,1.17-2.65,3.07-2.65,5.14,0,.76.14,1.51.4,2.23.15.39.52.65.94.65h10.02c.42,0,.8-.26.94-.65.27-.72.4-1.47.4-2.23,0-2.07-1.01-3.97-2.65-5.14Zm-3.7-5.31c1.44,0,2.61,1.16,2.61,2.6s-1.17,2.6-2.61,2.6-2.6-1.17-2.6-2.6,1.17-2.6,2.6-2.6Zm4.26,11.33h-8.52c-.06-.29-.09-.58-.09-.88,0-1.59.87-3.03,2.23-3.79.64.33,1.35.54,2.12.54s1.49-.21,2.12-.54c1.37.76,2.23,2.2,2.23,3.79,0,.3-.03.59-.09.88Z"/>
  <path d="m55.33,22.04c0,1.43-1.17,2.6-2.61,2.6s-2.6-1.17-2.6-2.6,1.17-2.6,2.6-2.6,2.61,1.16,2.61,2.6Z" style="fill: #eee;"/>
  <path d="m57.07,29.89c0,.3-.03.59-.09.88h-8.52c-.06-.29-.09-.58-.09-.88,0-1.59.87-3.03,2.23-3.79.64.33,1.35.54,2.12.54s1.49-.21,2.12-.54c1.37.76,2.23,2.2,2.23,3.79Z" style="fill: #eee;"/>
</svg>