<?xml version="1.0" encoding="UTF-8"?>
<svg id="b" data-name="Expanded" xmlns="http://www.w3.org/2000/svg" viewBox="0 0 76.92 76.92">
  <path d="m62.15,37.63s-.01-.09-.03-.14c-.05-.13-.14-.25-.25-.35l-5.23-4.72V12.92c0-.55-.44-1-1-1h-30.88c-.55,0-1,.45-1,1v19.5l-5.23,4.72c-.11.1-.19.22-.24.35-.02.05-.02.1-.03.14-.02.08-.06.16-.06.25v29.04c0,.55.45,1,1,1h42c.56,0,1-.45,1-1v-29.04c0-.09-.03-.17-.05-.25Zm-5.51-2.52l2.94,2.65-2.94,1.97v-4.62ZM25.76,13.92h28.88v27.14l-14.44,9.66-14.44-9.66V13.92Zm-2,21.19v4.62l-2.93-1.97,2.93-2.65Zm36.44,30.81H20.2v-26.17l19.45,13c.17.11.36.17.55.17.2,0,.39-.06.56-.17l19.44-13v26.17Z"/>
  <path d="m25.76,13.92v27.14l14.44,9.66,14.44-9.66V13.92h-28.88Zm22.23,21.18c-1.65.7-3.57.26-4.77-1.08-.19-.22-.33-.46-.46-.72-.38.52-.66.71-.79.8-.54.37-1.83.9-3.22.9-.62,0-1.25-.11-1.85-.38-.9-.41-2.02-1.35-2.28-3.52-.31-2.65.63-5.16,2.44-6.57,1.33-1.02,2.94-1.28,4.43-.7.95.37,1.69,1.01,2.21,1.84.22-.54.42-.97.53-1.2.24-.49.84-.7,1.34-.46.49.24.7.84.46,1.33-1.11,2.32-2.3,6.25-1.32,7.34.63.7,1.66.94,2.5.58,1.19-.5,1.79-1.98,1.66-4.06-.17-2.54-1.09-4.61-2.66-6-1.66-1.47-4.05-2.14-6.91-1.95-3.04.2-5.92,2.37-7.17,5.39-.69,1.68-1.41,5.03,1.6,8.45,5.2,5.92,13.41.89,13.49.83.47-.29,1.09-.15,1.38.32.29.47.15,1.09-.32,1.38-.06.04-3.82,2.35-8.18,2.35-2.64,0-5.49-.85-7.87-3.56-2.72-3.09-3.43-6.93-1.95-10.54,1.53-3.7,5.11-6.37,8.89-6.62,3.4-.23,6.29.62,8.36,2.45,1.98,1.75,3.13,4.29,3.33,7.36.28,4.24-1.91,5.64-2.87,6.04Z" style="fill: #eee;"/>
  <polygon points="59.58 37.76 56.64 39.73 56.64 35.11 59.58 37.76" style="fill: #6e0000;"/>
  <polygon points="23.76 35.11 23.76 39.73 20.83 37.76 23.76 35.11" style="fill: #6e0000;"/>
  <path d="m60.2,39.75v26.17H20.2v-26.17l19.45,13c.17.11.36.17.55.17.2,0,.39-.06.56-.17l19.44-13Z" style="fill: #c00000;"/>
  <path d="m45.57,24.01c-.5-.24-1.1-.03-1.34.46-.11.23-.31.66-.53,1.2-.52-.83-1.26-1.47-2.21-1.84-1.49-.58-3.1-.32-4.43.7-1.81,1.41-2.75,3.92-2.44,6.57.26,2.17,1.38,3.11,2.28,3.52.6.27,1.23.38,1.85.38,1.39,0,2.68-.53,3.22-.9.13-.09.41-.28.79-.8.13.26.27.5.46.72,1.2,1.34,3.12,1.78,4.77,1.08.96-.4,3.15-1.8,2.87-6.04-.2-3.07-1.35-5.61-3.33-7.36-2.07-1.83-4.96-2.68-8.36-2.45-3.78.25-7.36,2.92-8.89,6.62-1.48,3.61-.77,7.45,1.95,10.54,2.38,2.71,5.23,3.56,7.87,3.56,4.36,0,8.12-2.31,8.18-2.35.47-.29.61-.91.32-1.38-.29-.47-.91-.61-1.38-.32-.08.06-8.29,5.09-13.49-.83-3.01-3.42-2.29-6.77-1.6-8.45,1.25-3.02,4.13-5.19,7.17-5.39,2.86-.19,5.25.48,6.91,1.95,1.57,1.39,2.49,3.46,2.66,6,.13,2.08-.47,3.56-1.66,4.06-.84.36-1.87.12-2.5-.58-.98-1.09.21-5.02,1.32-7.34.24-.49.03-1.09-.46-1.33Zm-3.41,6.29c-.6,1.33-1.09,1.99-1.32,2.15-.43.3-2.03.85-3.11.35-.64-.29-1-.92-1.12-1.93-.23-1.93.43-3.79,1.67-4.75.51-.39,1.06-.59,1.61-.59.3,0,.59.05.88.16.8.32,1.33.91,1.61,1.81.27.89.19,1.89-.22,2.8Z"/>
  <path d="m42.16,30.3c-.6,1.33-1.09,1.99-1.32,2.15-.43.3-2.03.85-3.11.35-.64-.29-1-.92-1.12-1.93-.23-1.93.43-3.79,1.67-4.75.51-.39,1.06-.59,1.61-.59.3,0,.59.05.88.16.8.32,1.33.91,1.61,1.81.27.89.19,1.89-.22,2.8Z" style="fill: #eee;"/>
</svg>