<?xml version="1.0" encoding="utf-8"?>
<!-- Generator: Adobe Illustrator 27.3.1, SVG Export Plug-In . SVG Version: 6.00 Build 0)  -->
<svg version="1.1" id="Ebene_1" xmlns="http://www.w3.org/2000/svg" xmlns:xlink="http://www.w3.org/1999/xlink" x="0px" y="0px"
	 viewBox="0 0 1619.9 735.2" style="enable-background:new 0 0 1619.9 735.2;" xml:space="preserve">
<style type="text/css">
	.st0{opacity:0.72;fill:#F2EBEA;enable-background:new    ;}
	.st1{opacity:0.3;fill:none;stroke:#900A07;enable-background:new    ;}
	.st2{fill:#DBBEBB;stroke:#FFFFFF;stroke-width:2;}
</style>
<g transform="translate(9.288 -120.548)">
	<path class="st0" d="M-9,547.8L77.4,487l53.3,81.6l58.7-53.9l78.9,8.5l67.2-36.3l19.7-46.4l72.5,10.7l36.8-29.3l14.9,18.7
		l69.9-53.9h51.2l43.2,9.1l36.3,26.1l33.1-26.1l47.5-23.7l63.5-56l51.3-39.3l83.2-40.5l14.4,30.4l73.6,10.1l36.8-40.5l83.7-45.3
		l52.8,85.9l40.5,24h44.3l52.8-57.1l14.4-19.7h13.1l49.3-26.1l99.2-13.3l76.8-63.5v734.8H-9V547.8z"/>
	<path class="st1" d="M-9,547.7l86.4-60.8l53.3,81.6l58.7-53.9l78.9,8.5l67.2-36.3l19.7-46.4l72.5,10.7l36.8-29.3l14.9,18.7
		l69.9-53.9h51.2l43.2,9.1l36.3,26.1l33.1-26.1l47.5-23.7l63.5-56l51.3-39.3l83.2-40.5l14.4,30.4l73.6,10.1l36.8-40.5l83.7-45.3
		l52.8,85.9l40.5,24h44.3l52.8-57.1l14.4-19.7h13.1l49.3-26.1l99.2-13.3l76.8-63.5"/>
	<g>
		<path class="st2" d="M76.3,481.9c2.8,0,5,2.2,5,5c0,2.8-2.2,5-5,5c-2.8,0-5-2.2-5-5c0,0,0,0,0,0C71.3,484.2,73.5,481.9,76.3,481.9
			z"/>
		<path class="st2" d="M131.3,561.9c2.8,0,5,2.2,5,5s-2.2,5-5,5c-2.8,0-5-2.2-5-5c0,0,0,0,0,0C126.3,564.2,128.5,561.9,131.3,561.9z
			"/>
		<path class="st2" d="M189.3,508.9c2.8,0,5,2.2,5,5c0,2.8-2.2,5-5,5c-2.8,0-5-2.2-5-5c0,0,0,0,0,0
			C184.3,511.2,186.5,508.9,189.3,508.9z"/>
		<path class="st2" d="M268.3,518.9c2.8,0,5,2.2,5,5s-2.2,5-5,5c-2.8,0-5-2.2-5-5c0,0,0,0,0,0C263.3,521.1,265.5,518.9,268.3,518.9z
			"/>
		<path class="st2" d="M335.3,481.9c2.8,0,5,2.2,5,5c0,2.8-2.2,5-5,5c-2.8,0-5-2.2-5-5c0,0,0,0,0,0
			C330.3,484.2,332.5,481.9,335.3,481.9z"/>
		<path class="st2" d="M355.3,435.9c2.8,0,5,2.2,5,5c0,2.8-2.2,5-5,5c-2.8,0-5-2.2-5-5c0,0,0,0,0,0
			C350.3,438.2,352.5,435.9,355.3,435.9z"/>
		<path class="st2" d="M430.3,445.9c2.8,0,5,2.2,5,5c0,2.8-2.2,5-5,5c-2.8,0-5-2.2-5-5c0,0,0,0,0,0
			C425.3,448.1,427.5,445.9,430.3,445.9z"/>
		<path class="st2" d="M465.3,416.9c2.8,0,5,2.2,5,5c0,2.8-2.2,5-5,5c-2.8,0-5-2.2-5-5c0,0,0,0,0,0
			C460.3,419.2,462.5,416.9,465.3,416.9z"/>
		<path class="st2" d="M480.3,433.9c2.8,0,5,2.2,5,5c0,2.8-2.2,5-5,5c-2.8,0-5-2.2-5-5c0,0,0,0,0,0
			C475.3,436.2,477.5,433.9,480.3,433.9z"/>
		<path class="st2" d="M549.3,381.9c2.8,0,5,2.2,5,5c0,2.8-2.2,5-5,5s-5-2.2-5-5c0,0,0,0,0,0C544.3,384.2,546.5,381.9,549.3,381.9z"
			/>
		<path class="st2" d="M601.3,381.9c2.8,0,5,2.2,5,5c0,2.8-2.2,5-5,5s-5-2.2-5-5c0,0,0,0,0,0C596.3,384.2,598.5,381.9,601.3,381.9z"
			/>
		<path class="st2" d="M644.3,391.9c2.8,0,5,2.2,5,5c0,2.8-2.2,5-5,5s-5-2.2-5-5c0,0,0,0,0,0C639.3,394.1,641.5,391.9,644.3,391.9z"
			/>
		<path class="st2" d="M680.3,416.9c2.8,0,5,2.2,5,5c0,2.8-2.2,5-5,5s-5-2.2-5-5c0,0,0,0,0,0C675.3,419.2,677.5,416.9,680.3,416.9z"
			/>
		<path class="st2" d="M714.3,390.9c2.8,0,5,2.2,5,5c0,2.8-2.2,5-5,5s-5-2.2-5-5c0,0,0,0,0,0C709.3,393.1,711.5,390.9,714.3,390.9z"
			/>
		<path class="st2" d="M762.3,365.9c2.8,0,5,2.2,5,5c0,2.8-2.2,5-5,5s-5-2.2-5-5c0,0,0,0,0,0C757.3,368.1,759.5,365.9,762.3,365.9z"
			/>
		<path class="st2" d="M874.3,272.9c2.8,0,5,2.2,5,5c0,2.8-2.2,5-5,5s-5-2.2-5-5c0,0,0,0,0,0C869.3,275.1,871.5,272.9,874.3,272.9z"
			/>
		<path class="st2" d="M957.3,233.2c2.8,0,5,2.2,5,5c0,2.8-2.2,5-5,5s-5-2.2-5-5c0,0,0,0,0,0C952.3,235.5,954.5,233.2,957.3,233.2z"
			/>
		<path class="st2" d="M973.3,261.2c2.8,0,5,2.2,5,5c0,2.8-2.2,5-5,5s-5-2.2-5-5c0,0,0,0,0,0C968.3,263.5,970.5,261.2,973.3,261.2z"
			/>
		<path class="st2" d="M1047.5,271.2c2.8,0,5,2.2,5,5c0,2.8-2.2,5-5,5s-5-2.2-5-5c0,0,0,0,0,0
			C1042.5,273.5,1044.7,271.2,1047.5,271.2z"/>
		<path class="st2" d="M1084.5,230.2c2.8,0,5,2.2,5,5c0,2.8-2.2,5-5,5s-5-2.2-5-5c0,0,0,0,0,0
			C1079.5,232.5,1081.7,230.2,1084.5,230.2z"/>
		<path class="st2" d="M1167.5,186.2c2.8,0,5,2.2,5,5c0,2.8-2.2,5-5,5s-5-2.2-5-5c0,0,0,0,0,0
			C1162.5,188.5,1164.7,186.2,1167.5,186.2z"/>
		<path class="st2" d="M1218.5,271.2c2.8,0,5,2.2,5,5c0,2.8-2.2,5-5,5s-5-2.2-5-5c0,0,0,0,0,0
			C1213.5,273.5,1215.7,271.2,1218.5,271.2z"/>
		<path class="st2" d="M1261.5,295.2c2.8,0,5,2.2,5,5c0,2.8-2.2,5-5,5s-5-2.2-5-5c0,0,0,0,0,0
			C1256.5,297.5,1258.7,295.2,1261.5,295.2z"/>
		<path class="st2" d="M1304.5,295.2c2.8,0,5,2.2,5,5c0,2.8-2.2,5-5,5s-5-2.2-5-5c0,0,0,0,0,0
			C1299.5,297.5,1301.7,295.2,1304.5,295.2z"/>
		<path class="st2" d="M1371,218.2c2.8,0,5,2.2,5,5c0,2.8-2.2,5-5,5s-5-2.2-5-5c0,0,0,0,0,0C1366,220.5,1368.2,218.2,1371,218.2z"/>
		<path class="st2" d="M1388,219.2c2.8,0,5,2.2,5,5c0,2.8-2.2,5-5,5s-5-2.2-5-5c0,0,0,0,0,0C1383,221.5,1385.2,219.2,1388,219.2z"/>
		<path class="st2" d="M1388,219.2c2.8,0,5,2.2,5,5c0,2.8-2.2,5-5,5s-5-2.2-5-5c0,0,0,0,0,0C1383,221.5,1385.2,219.2,1388,219.2z"/>
		<path class="st2" d="M1435,191.2c2.8,0,5,2.2,5,5c0,2.8-2.2,5-5,5s-5-2.2-5-5c0,0,0,0,0,0C1430,193.5,1432.2,191.2,1435,191.2z"/>
		<path class="st2" d="M1533,179.2c2.8,0,5,2.2,5,5c0,2.8-2.2,5-5,5s-5-2.2-5-5c0,0,0,0,0,0C1528,181.5,1530.2,179.2,1533,179.2z"/>
	</g>
</g>
</svg>
