<?xml version="1.0" encoding="utf-8"?>
<!-- Generator: Adobe Illustrator 27.3.1, SVG Export Plug-In . SVG Version: 6.00 Build 0)  -->
<svg version="1.1" id="Ebene_1" xmlns="http://www.w3.org/2000/svg" xmlns:xlink="http://www.w3.org/1999/xlink" x="0px" y="0px"
	 viewBox="0 0 880.1 259.7" style="enable-background:new 0 0 880.1 259.7;" xml:space="preserve">
<style type="text/css">
	.st0{fill:#606060;}
	.st1{fill:#FFFFFF;}
	.st2{fill:#C00000;}
	.st3{enable-background:new    ;}
</style>
<circle class="st0" cx="2339.1" cy="79.6" r="344.9"/>
<circle class="st1" cx="2339.1" cy="79.6" r="307.3"/>
<g>
	<path d="M518.5,835v-43.7h5.6V830h22.1v5H518.5z"/>
	<path d="M577.6,818.1c0,5.7,0,11.3,0.3,17h-4.7l-0.6-5.7h-0.4c-2,4-5.7,6.4-10.9,6.4c-6.2,0-10.4-3.7-10.4-9.4
		c0-6.1,4.4-9.8,13.3-10.3l7.9-0.4v-1.6c0-4.6-3.3-6.7-7.5-6.7c-4.4,0-7.2,2.1-8.5,6.1l-4.9-1.7c1.4-5.9,6.9-9,13.4-9
		c8,0,12.9,4.1,12.9,11.2L577.6,818.1L577.6,818.1z M572.2,820.1l-7,0.4c-5.4,0.4-8.8,1.9-8.8,5.6c0,2.9,2.2,4.7,5.9,4.7
		C567.7,830.9,572,826.3,572.2,820.1z"/>
	<path d="M585.8,839.5l5.1-1.9c1.3,3.9,4.6,5.8,9.4,5.8c5.2,0,8.5-2.9,8.5-8.4v-6.5h-0.4c-2.2,3.7-5.6,5.9-10.5,5.9
		c-8.1,0-13.4-6.4-13.4-15.9s5.3-15.9,13.4-15.9c4.8,0,8.3,2.2,10.5,5.9h0.4l0.6-5.3h5.3c-0.3,5.7-0.3,10.9-0.3,16.3v15.7
		c0,7.7-5.1,12.8-14.2,12.8C593.2,848.1,587.7,845,585.8,839.5z M608.9,818.4c0-6.4-3.6-10.9-9.4-10.9c-5.7,0-9.4,4.5-9.4,10.9
		s3.6,10.9,9.4,10.9C605.3,829.4,608.9,824.9,608.9,818.4z"/>
	<path d="M650.8,821.1h-23.4c0.6,6,4.2,9.9,9.5,9.9c3.6,0,6.3-1.6,8.2-5.3l5,1.8c-2.2,5.4-6.9,8.2-13.2,8.2
		c-9.5,0-15.3-7.2-15.3-16.5s5.7-16.5,15.2-16.5c8.4,0,14.1,5.8,14.1,15.7C651,819.3,650.9,820.2,650.8,821.1z M627.5,816.6h18.1
		c-0.5-5.9-3.9-9.3-8.7-9.3C631.7,807.3,628.2,810.8,627.5,816.6z"/>
	<path d="M676.5,802.7v5.3c-1-0.1-1.5-0.1-2.4-0.1c-5,0-10.4,3.1-10.4,12.5V835h-5.6v-14.8c0-5.7,0-11.3-0.3-17h5.3l0.7,6.2h0.4
		c1.9-4.5,5.4-6.9,9.8-6.9C674.9,802.6,675.5,802.6,676.5,802.7z"/>
	<path d="M686.5,826.6v-18.7h-6.2v-4.7h6.7l1.4-8.7h3.8v8.7h9.2v4.7h-9.2v18.5c0,3.1,1.7,4.6,4.1,4.6c1.5,0,2.8-0.3,4.4-1.3l1.8,3.9
		c-2.4,1.6-4.6,2.1-7.1,2.1C690.1,835.7,686.5,832.5,686.5,826.6z"/>
	<path d="M735.7,821.1h-23.4c0.6,6,4.2,9.9,9.5,9.9c3.6,0,6.3-1.6,8.2-5.3l5,1.8c-2.2,5.4-6.9,8.2-13.2,8.2
		c-9.5,0-15.3-7.2-15.3-16.5s5.7-16.5,15.2-16.5c8.4,0,14.1,5.8,14.1,15.7C735.9,819.3,735.8,820.2,735.7,821.1z M712.3,816.6h18.1
		c-0.5-5.9-3.9-9.3-8.7-9.3C716.6,807.3,713.1,810.8,712.3,816.6z"/>
	<path d="M741.5,819.1c0-9.3,5.8-16.5,15.3-16.5c6.3,0,11.4,3.1,13.5,9.6l-5.4,1.9c-1.6-4.6-4.4-6.5-8.1-6.5
		c-5.8,0-9.7,4.6-9.7,11.5s3.9,11.5,9.7,11.5c3.7,0,6.7-2,8.4-6.5l5.4,1.9c-2.1,6.5-7.7,9.6-13.8,9.6
		C747.3,835.7,741.5,828.4,741.5,819.1z"/>
	<path d="M805.8,816.3V835h-5.6v-18.4c0-6-2.8-9-7.7-9c-5.7,0-9.5,4.4-9.5,10v17.5h-5.6v-43.7h5.6v9.9l-0.2,7.3h0.7
		c2.3-3.9,6.2-5.9,10.5-5.9C801.3,802.6,805.8,807,805.8,816.3z"/>
	<path d="M814.2,835v-14.8c0-5.7,0-11.3-0.3-17h5.3l0.6,5.3h0.4c2.2-3.8,6.2-5.9,10.5-5.9c7.3,0,11.8,4.4,11.8,13.7V835h-5.6v-18.4
		c0-6-2.8-9-7.7-9c-5.7,0-9.5,4.4-9.5,10v17.5L814.2,835L814.2,835L814.2,835z"/>
	<path d="M849.5,794.8c0-2.3,1.9-4.1,4.2-4.1c2.4,0,4.2,1.7,4.2,4.1s-1.8,4.1-4.2,4.1C851.4,798.9,849.5,797.1,849.5,794.8z
		 M851,835v-31.8h5.6V835H851z"/>
	<path d="M865.3,835v-43.7h5.6v27l14.2-15.2h7.3l-14.9,15.1l15.2,16.7h-7.5l-14.3-16v16L865.3,835L865.3,835z"/>
	<path d="M912.4,813.2c0-13.4,8-22.5,19.6-22.5c7.9,0,14.3,3.6,17.5,11.7l-5.2,1.9c-2.4-6.1-6.6-8.8-12.3-8.8c-8.4,0-14,6.7-14,17.6
		s5.5,17.6,14.8,17.6c4.4,0,8.3-1.9,10.8-4.6V817l-10.5-0.5V812h16.1v15.8c-3.7,5.1-9.7,7.7-16.4,7.7
		C920.4,835.7,912.4,826.6,912.4,813.2z"/>
	<path d="M985.6,821.1h-23.4c0.6,6,4.2,9.9,9.5,9.9c3.6,0,6.3-1.6,8.2-5.3l5,1.8c-2.2,5.4-6.9,8.2-13.2,8.2
		c-9.5,0-15.3-7.2-15.3-16.5s5.7-16.5,15.2-16.5c8.4,0,14.1,5.8,14.1,15.7C985.7,819.3,985.7,820.2,985.6,821.1z M962.2,816.6h18.1
		c-0.5-5.9-3.9-9.3-8.7-9.3C966.5,807.3,963,810.8,962.2,816.6z"/>
	<path d="M1011.3,802.7v5.3c-1-0.1-1.5-0.1-2.4-0.1c-5,0-10.4,3.1-10.4,12.5V835h-5.6v-14.8c0-5.7,0-11.3-0.3-17h5.3l0.7,6.2h0.4
		c1.9-4.5,5.4-6.9,9.8-6.9C1009.7,802.6,1010.2,802.6,1011.3,802.7z"/>
	<path d="M1015.7,827.5l4.7-1.7c1.2,3.9,5.1,5.5,8.5,5.5c4.1,0,6.3-1.9,6.3-4.6c0-7.5-18.8-2.3-18.8-15.4c0-5.1,4.4-8.7,11.4-8.7
		c5.7,0,10.5,2.4,12,7.5l-4.7,1.7c-1.2-3.5-4.1-4.9-7.3-4.9c-4,0-6,1.9-6,4.3c0,7.6,18.8,2.4,18.8,15.4c0,5.4-4.7,9-11.7,9
		C1023.2,835.7,1017.5,833.4,1015.7,827.5z"/>
	<path d="M1046.1,819.1c0-9.3,5.8-16.5,15.3-16.5c6.3,0,11.4,3.1,13.5,9.6l-5.4,1.9c-1.6-4.6-4.4-6.5-8.1-6.5
		c-5.8,0-9.7,4.6-9.7,11.5s3.9,11.5,9.7,11.5c3.7,0,6.7-2,8.4-6.5l5.4,1.9c-2.1,6.5-7.7,9.6-13.8,9.6
		C1051.9,835.7,1046.1,828.4,1046.1,819.1z"/>
	<path d="M1110.4,816.3V835h-5.6v-18.4c0-6-2.8-9-7.7-9c-5.7,0-9.5,4.4-9.5,10v17.5h-5.6v-43.7h5.6v9.9l-0.2,7.3h0.7
		c2.3-3.9,6.2-5.9,10.5-5.9C1105.9,802.6,1110.4,807,1110.4,816.3z"/>
	<path d="M1118.5,821.9v-18.7h5.6v18.4c0,6,2.8,9,7.7,9c5.7,0,9.5-4.4,9.5-10v-17.5h5.6v14.8c0,5.7,0,11.3,0.3,17h-5.3l-0.6-5.3
		h-0.4c-2.2,3.8-6.2,5.9-10.5,5.9C1123,835.7,1118.5,831.3,1118.5,821.9z M1123.2,794.8c0-2.1,1.8-3.7,4-3.7c2.1,0,3.8,1.6,3.8,3.7
		s-1.7,3.7-3.8,3.7S1123.2,796.9,1123.2,794.8z M1134.4,794.8c0-2.1,1.8-3.7,4-3.7c2.1,0,3.8,1.6,3.8,3.7s-1.7,3.7-3.8,3.7
		C1136.2,798.5,1134.4,796.9,1134.4,794.8z"/>
	<path d="M1159.4,826.6v-18.7h-6.2v-4.7h6.7l1.4-8.7h3.8v8.7h9.2v4.7h-9.2v18.5c0,3.1,1.7,4.6,4.1,4.6c1.5,0,2.8-0.3,4.4-1.3
		l1.8,3.9c-2.4,1.6-4.6,2.1-7.1,2.1C1163,835.7,1159.4,832.5,1159.4,826.6z"/>
	<path d="M1180.2,835v-4.9l17.3-21.3v-0.3h-16.8v-5.2h23.9v4.9l-17.2,21.3v0.3h17.8v5.2H1180.2z"/>
	<path d="M1226.3,813.2c0-13.4,8-22.5,19.6-22.5c7.9,0,14.3,3.6,17.5,11.7l-5.2,1.9c-2.4-6.1-6.6-8.8-12.3-8.8
		c-8.4,0-14,6.7-14,17.6s5.5,17.6,14.8,17.6c4.4,0,8.3-1.9,10.8-4.6V817l-10.5-0.5V812h16.1v15.8c-3.7,5.1-9.7,7.7-16.4,7.7
		C1234.4,835.7,1226.3,826.6,1226.3,813.2z"/>
	<path d="M1271.9,835v-14.8c0-5.7,0-11.3-0.3-17h5.3l0.6,5h0.4c2-3.7,5.7-5.6,9.5-5.6c4.9,0,8,2.1,9.7,6.2h0.4
		c2.1-4,5.8-6.2,10.4-6.2c6.7,0,10.7,4.1,10.7,12.8V835h-5.6v-18.9c0-5.6-2.4-8.5-6.7-8.5c-4.9,0-8.3,3.9-8.3,9.3V835h-5.6v-18.9
		c0-5.6-2.4-8.5-6.7-8.5c-4.9,0-8.3,3.9-8.3,9.3V835H1271.9z"/>
	<path d="M1333.2,829.7h-0.5l-0.6,5.3h-5.3c0.3-5.7,0.3-11.3,0.3-17v-26.7h5.6v17.2h0.4c2.2-3.7,5.7-5.9,10.4-5.9
		c8.2,0,13.5,6.7,13.5,16.6s-5.3,16.5-13.5,16.5C1338.8,835.7,1335.3,833.5,1333.2,829.7z M1351.4,819.2c0-7-3.7-11.6-9.4-11.6
		c-5.7,0-9.4,4.6-9.4,11.6s3.7,11.5,9.4,11.5C1347.8,830.7,1351.4,826.2,1351.4,819.2z"/>
	<path d="M1364.6,835v-43.7h5.6v19h22.8v-19h5.6V835h-5.6v-19.6h-22.8V835H1364.6z"/>
</g>
<g>
	<path class="st2" d="M1225.8,696.2c0,5.9,0,11.9,0,17.8c0,6-2.3,11-7,14.5c-25,18.3-69.6,27.4-103.3,9.2
		c-19.6-10.5-29.7-27.7-34.3-48.8c-5.6-25.8-2.1-50.1,13.1-71.9c12.1-17.3,30.1-24.8,50.4-27.5c15-2.1,30-1.1,44.4,4
		c11.4,4,20.8,11,26.9,21.4c2.9,4.9,4.6,11,5.2,16.6c0.6,6.9-4.2,12.3-10.6,14.6c-6.9,2.4-14.1,0.7-18.7-4.5c-2.2-2.5-4.4-5.1-5.9-8
		c-12.2-23.6-53.7-19.5-64.6,5.8c-8,18.7-8.3,37.8-0.3,56.5c6.6,15.5,19.6,22.2,36,22.2c10.7,0,21.1-2.4,30.8-7.1
		c3.5-1.6,4.9-3.8,4.8-7.7c-0.4-15.2,2.1-13.4-13.2-13.5c-4.4,0-8.7,0-13.1-0.3c-8.5-0.7-13.4-5.2-13.9-12.8
		c-0.5-7.8,3.9-13.4,12.5-14.6c5.6-0.8,11.4-0.7,17.2-0.7c8.5,0,17.1,0.2,25.6,0.4c12,0.3,17.8,6.2,18.1,18.2
		C1226,685.4,1225.9,690.8,1225.8,696.2L1225.8,696.2L1225.8,696.2L1225.8,696.2z"/>
	<path class="st2" d="M918.3,622.1c-6.3,0-12,0-17.7,0c-5.6,0-11.2,0.1-16.7-0.3c-7.7-0.7-13.2-6.6-13.4-14.2
		c-0.3-8.4,4.7-14.6,12.8-15.7c2.8-0.4,5.5-0.5,8.3-0.5c31.7,0.1,63.5,0,95.2,0.4c11.1,0.1,17.4,9.2,14.4,19.8
		c-1.8,6.1-6.2,9.8-13.6,10.2c-9.2,0.5-18.5,0.6-27.7,0.3c-4.5-0.1-5.9,1.1-5.9,5.8c0.2,31.6,0.2,63.1,0,94.7
		c0,4.6-0.7,9.4-1.9,13.9c-2.2,7.8-7.6,11.1-16.3,11c-8.2-0.1-14.3-4.2-16.1-11.5c-1-4.2-1.4-8.6-1.4-12.9c-0.1-31.2,0-62.4,0-93.7
		C918.3,627.2,918.3,625.2,918.3,622.1L918.3,622.1z"/>
	<path class="st2" d="M726.9,658.8c0,16,0,32.1,0,48.2c0,7.3,0,7.4,7.2,7.4c15.3,0,30.7-0.1,46,0.1c4.3,0,8.7,0.7,12.8,1.9
		c7.4,2.1,10.3,7.3,9.4,15.2c-0.7,7-5.4,11.9-12.4,12.7c-3.6,0.4-7.3,0.7-10.9,0.7c-22.2,0-44.3,0-66.5,0
		c-14.7,0-21.2-6.4-21.3-20.9c-0.1-38.5-0.1-77.1,0-115.7c0-14,9.1-21.7,22.2-19.1c6.5,1.3,10.7,5.1,12.1,11.5
		c0.9,3.9,1.2,7.9,1.3,11.9C727,628.1,726.9,643.4,726.9,658.8z"/>
	<path class="st2" d="M1024.8,673.5c6.6,0,13.2-0.2,19.9,0c7.7,0.3,13,5.6,13.8,13.7c0.7,7.3-3.4,14-10.8,14.9
		c-9.8,1.3-19.8,1.3-29.6,1.4c-5.2,0.1-10.5-0.2-15.6-1c-7.6-1.3-12.1-7.4-11.5-15c0.6-8,5.7-13.6,13.5-14
		C1011.2,673.1,1018.1,673.4,1024.8,673.5L1024.8,673.5z"/>
	<path class="st2" d="M838,673.5c6.5,0,12.9-0.1,19.4,0c8.1,0.2,13.6,6.1,13.9,14.6c0.3,8-4.4,13.8-12.7,14.2
		c-13,0.7-26.1,1.2-39.1,0.8c-12.1-0.3-17.9-8.3-15-19.1c1.7-6.6,6.2-10.3,13.2-10.5C824.4,673.2,831.2,673.5,838,673.5z"/>
</g>
<g>
	<path class="st2" d="M2608.1,119.5c0,8.4,0,16.9,0,25.2c0,8.5-3.3,15.6-9.9,20.5c-35.4,25.9-98.6,38.8-146.4,13
		c-27.8-14.9-42.1-39.3-48.6-69.2c-7.9-36.6-3-71,18.6-101.9c17.1-24.5,42.7-35.1,71.4-39c21.3-3,42.5-1.6,62.9,5.7
		c16.2,5.7,29.5,15.6,38.1,30.3c4.1,6.9,6.5,15.6,7.4,23.5c0.9,9.8-6,17.4-15,20.7c-9.8,3.4-20,1-26.5-6.4
		c-3.1-3.5-6.2-7.2-8.4-11.3c-17.3-33.4-76.1-27.6-91.6,8.2c-11.3,26.5-11.8,53.6-0.4,80.1c9.4,22,27.8,31.5,51,31.5
		c15.2,0,29.9-3.4,43.7-10.1c5-2.3,6.9-5.4,6.8-10.9c-0.6-21.5,3-19-18.7-19.1c-6.2,0-12.3,0-18.6-0.4c-12-1-19-7.4-19.7-18.1
		c-0.7-11.1,5.5-19,17.7-20.7c7.9-1.1,16.2-1,24.4-1c12,0,24.2,0.3,36.3,0.6c17,0.4,25.2,8.8,25.7,25.8c0.1,7.7,0,15.3,0,23l0,0
		L2608.1,119.5z"/>
	<path class="st2" d="M2281,14.5c-8.9,0-17,0-25.1,0c-7.9,0-15.9,0.1-23.7-0.4c-10.9-1-18.7-9.4-19-20.1
		c-0.4-11.9,6.7-20.7,18.1-22.3c4-0.6,7.8-0.7,11.8-0.7c44.9,0.1,90,0,134.9,0.6c15.7,0.1,24.7,13,20.4,28.1
		c-2.6,8.6-8.8,13.9-19.3,14.5c-13,0.7-26.2,0.9-39.3,0.4c-6.4-0.1-8.4,1.6-8.4,8.2c0.3,44.8,0.3,89.4,0,134.2
		c0,6.5-1,13.3-2.7,19.7c-3.1,11.1-10.8,15.7-23.1,15.6c-11.6-0.1-20.3-6-22.8-16.3c-1.4-6-2-12.2-2-18.3c-0.1-44.2,0-88.4,0-132.8
		C2281,21.7,2281,18.9,2281,14.5L2281,14.5z"/>
	<path class="st2" d="M2139.1,66.5c0,22.7,0,45.5,0,68.3c0,10.3,0,10.5,10.2,10.5c21.7,0,43.5-0.1,65.2,0.1c6.1,0,12.3,1,18.1,2.7
		c10.5,3,14.6,10.3,13.3,21.5c-1,9.9-7.7,16.9-17.6,18c-5.1,0.6-10.3,1-15.4,1c-31.5,0-62.8,0-94.2,0c-20.8,0-30-9.1-30.2-29.6
		c-0.1-54.6-0.1-109.3,0-164c0-19.8,12.9-30.8,31.5-27.1c9.2,1.8,15.2,7.2,17.1,16.3c1.3,5.5,1.7,11.2,1.8,16.9
		C2139.2,23,2139.1,44.7,2139.1,66.5z"/>
</g>
<g>
	<g class="st3">
		<path d="M0,246.6v-43.7h5.6v38.7h22.1v5H0z"/>
		<path d="M59.1,229.6c0,5.7,0,11.3,0.3,17h-4.7l-0.6-5.7h-0.4c-2,4-5.7,6.4-10.9,6.4c-6.2,0-10.4-3.7-10.4-9.4
			c0-6.1,4.4-9.8,13.3-10.3l7.9-0.4v-1.6c0-4.6-3.3-6.7-7.5-6.7c-4.4,0-7.2,2.1-8.5,6.1l-4.9-1.7c1.4-5.9,6.9-9,13.4-9
			c8,0,12.9,4.1,12.9,11.2V229.6z M53.6,231.6l-7,0.4c-5.4,0.4-8.8,1.9-8.8,5.6c0,2.9,2.2,4.7,5.9,4.7
			C49.2,242.4,53.4,237.8,53.6,231.6z"/>
		<path d="M67.3,251.1l5.1-1.9c1.3,3.9,4.6,5.8,9.4,5.8c5.2,0,8.5-2.9,8.5-8.4V240h-0.4c-2.2,3.7-5.6,5.9-10.5,5.9
			c-8.1,0-13.4-6.4-13.4-15.9c0-9.5,5.3-15.9,13.4-15.9c4.8,0,8.3,2.2,10.5,5.9h0.4l0.6-5.3h5.3c-0.3,5.7-0.3,10.9-0.3,16.3v15.7
			c0,7.7-5.1,12.8-14.2,12.8C74.6,259.7,69.2,256.6,67.3,251.1z M90.4,230c0-6.4-3.6-10.9-9.4-10.9s-9.4,4.5-9.4,10.9
			c0,6.4,3.6,10.9,9.4,10.9S90.4,236.4,90.4,230z"/>
		<path d="M132.3,232.6h-23.4c0.6,6,4.2,9.9,9.5,9.9c3.6,0,6.3-1.6,8.2-5.3l5,1.8c-2.2,5.4-6.9,8.2-13.2,8.2
			c-9.5,0-15.3-7.2-15.3-16.5s5.7-16.5,15.2-16.5c8.4,0,14.1,5.8,14.1,15.7C132.5,230.8,132.4,231.8,132.3,232.6z M108.9,228.1h18.1
			c-0.5-5.9-3.9-9.3-8.7-9.3C113.2,218.8,109.7,222.4,108.9,228.1z"/>
		<path d="M158,214.2v5.3c-1-0.1-1.5-0.1-2.4-0.1c-5,0-10.4,3.1-10.4,12.5v14.6h-5.6v-14.8c0-5.7,0-11.3-0.3-17h5.3l0.7,6.2h0.4
			c1.9-4.5,5.4-6.9,9.8-6.9C156.4,214.1,157,214.1,158,214.2z"/>
		<path d="M167.9,238.2v-18.7h-6.2v-4.7h6.7l1.4-8.7h3.8v8.7h9.2v4.7h-9.2V238c0,3.1,1.7,4.6,4.1,4.6c1.5,0,2.8-0.3,4.4-1.3l1.8,3.9
			c-2.4,1.6-4.6,2.1-7.1,2.1C171.6,247.2,167.9,244.1,167.9,238.2z"/>
		<path d="M217.1,232.6h-23.4c0.6,6,4.2,9.9,9.5,9.9c3.6,0,6.3-1.6,8.2-5.3l5,1.8c-2.2,5.4-6.9,8.2-13.2,8.2
			c-9.5,0-15.3-7.2-15.3-16.5s5.7-16.5,15.2-16.5c8.4,0,14.1,5.8,14.1,15.7C217.3,230.8,217.3,231.8,217.1,232.6z M193.8,228.1H212
			c-0.5-5.9-3.9-9.3-8.7-9.3C198.1,218.8,194.6,222.4,193.8,228.1z"/>
		<path d="M222.9,230.7c0-9.3,5.8-16.5,15.3-16.5c6.3,0,11.4,3.1,13.5,9.6l-5.4,1.9c-1.6-4.6-4.4-6.5-8.1-6.5
			c-5.8,0-9.7,4.6-9.7,11.5s3.9,11.5,9.7,11.5c3.7,0,6.7-2,8.4-6.5l5.4,1.9c-2.1,6.5-7.7,9.6-13.8,9.6
			C228.7,247.2,222.9,240,222.9,230.7z"/>
		<path d="M287.2,227.9v18.7h-5.6v-18.4c0-6-2.8-9-7.7-9c-5.7,0-9.5,4.4-9.5,10v17.5h-5.6v-43.7h5.6v9.9l-0.2,7.3h0.7
			c2.3-3.9,6.2-5.9,10.5-5.9C282.8,214.1,287.2,218.5,287.2,227.9z"/>
		<path d="M295.7,246.6v-14.8c0-5.7,0-11.3-0.3-17h5.3l0.6,5.3h0.4c2.2-3.8,6.2-5.9,10.5-5.9c7.3,0,11.8,4.4,11.8,13.7v18.7h-5.6
			v-18.4c0-6-2.8-9-7.7-9c-5.7,0-9.5,4.4-9.5,10v17.5H295.7z"/>
		<path d="M331,206.3c0-2.3,1.9-4.1,4.2-4.1c2.4,0,4.2,1.7,4.2,4.1s-1.8,4.1-4.2,4.1C332.9,210.4,331,208.7,331,206.3z M332.5,246.6
			v-31.8h5.6v31.8H332.5z"/>
		<path d="M346.8,246.6v-43.7h5.6v27l14.2-15.2h7.3L359,229.9l15.2,16.7h-7.5l-14.3-16v16H346.8z"/>
		<path d="M393.9,224.7c0-13.4,8-22.5,19.6-22.5c7.9,0,14.3,3.6,17.5,11.7l-5.2,1.9c-2.4-6.1-6.6-8.8-12.3-8.8
			c-8.4,0-14,6.7-14,17.6s5.5,17.6,14.8,17.6c4.4,0,8.3-1.9,10.8-4.6v-9.1l-10.5-0.5v-4.5h16.1v15.8c-3.7,5.1-9.7,7.7-16.4,7.7
			C401.9,247.2,393.9,238.2,393.9,224.7z"/>
		<path d="M467,232.6h-23.4c0.6,6,4.2,9.9,9.5,9.9c3.6,0,6.3-1.6,8.2-5.3l5,1.8c-2.2,5.4-6.9,8.2-13.2,8.2
			c-9.5,0-15.3-7.2-15.3-16.5s5.7-16.5,15.2-16.5c8.4,0,14.1,5.8,14.1,15.7C467.2,230.8,467.2,231.8,467,232.6z M443.7,228.1h18.1
			c-0.5-5.9-3.9-9.3-8.7-9.3C447.9,218.8,444.5,222.4,443.7,228.1z"/>
		<path d="M492.8,214.2v5.3c-1-0.1-1.5-0.1-2.4-0.1c-5,0-10.4,3.1-10.4,12.5v14.6h-5.6v-14.8c0-5.7,0-11.3-0.3-17h5.3l0.7,6.2h0.4
			c1.9-4.5,5.4-6.9,9.8-6.9C491.2,214.1,491.7,214.1,492.8,214.2z"/>
		<path d="M497.1,239l4.7-1.7c1.2,3.9,5.1,5.5,8.5,5.5c4.1,0,6.3-1.9,6.3-4.6c0-7.5-18.8-2.3-18.8-15.4c0-5.1,4.4-8.7,11.4-8.7
			c5.7,0,10.5,2.4,12,7.5l-4.7,1.7c-1.2-3.5-4.1-4.9-7.3-4.9c-4,0-6,1.9-6,4.3c0,7.6,18.8,2.4,18.8,15.4c0,5.4-4.7,9-11.7,9
			C504.7,247.2,499,245,497.1,239z"/>
		<path d="M527.6,230.7c0-9.3,5.8-16.5,15.3-16.5c6.3,0,11.4,3.1,13.5,9.6l-5.4,1.9c-1.6-4.6-4.4-6.5-8.1-6.5
			c-5.8,0-9.7,4.6-9.7,11.5s3.9,11.5,9.7,11.5c3.7,0,6.7-2,8.4-6.5l5.4,1.9c-2.1,6.5-7.7,9.6-13.8,9.6
			C533.4,247.2,527.6,240,527.6,230.7z"/>
		<path d="M591.9,227.9v18.7h-5.6v-18.4c0-6-2.8-9-7.7-9c-5.7,0-9.5,4.4-9.5,10v17.5h-5.6v-43.7h5.6v9.9l-0.2,7.3h0.7
			c2.3-3.9,6.2-5.9,10.5-5.9C587.4,214.1,591.9,218.5,591.9,227.9z"/>
		<path d="M600,233.5v-18.7h5.6v18.4c0,6,2.8,9,7.7,9c5.7,0,9.5-4.4,9.5-10v-17.5h5.6v14.8c0,5.7,0,11.3,0.3,17h-5.3l-0.6-5.3h-0.4
			c-2.2,3.8-6.2,5.9-10.5,5.9C604.5,247.2,600,242.8,600,233.5z M604.7,206.3c0-2.1,1.8-3.7,4-3.7c2.1,0,3.8,1.6,3.8,3.7
			c0,2.1-1.7,3.7-3.8,3.7C606.5,210.1,604.7,208.5,604.7,206.3z M615.9,206.3c0-2.1,1.8-3.7,4-3.7c2.1,0,3.8,1.6,3.8,3.7
			c0,2.1-1.7,3.7-3.8,3.7C617.7,210.1,615.9,208.5,615.9,206.3z"/>
		<path d="M640.8,238.2v-18.7h-6.2v-4.7h6.7l1.4-8.7h3.8v8.7h9.2v4.7h-9.2V238c0,3.1,1.7,4.6,4.1,4.6c1.5,0,2.8-0.3,4.4-1.3l1.8,3.9
			c-2.4,1.6-4.6,2.1-7.1,2.1C644.4,247.2,640.8,244.1,640.8,238.2z"/>
		<path d="M661.7,246.6v-4.9l17.3-21.3V220h-16.8v-5.2h23.9v4.9L668.8,241v0.3h17.8v5.2H661.7z"/>
		<path d="M707.8,224.7c0-13.4,8-22.5,19.6-22.5c7.9,0,14.3,3.6,17.5,11.7l-5.2,1.9c-2.4-6.1-6.6-8.8-12.3-8.8
			c-8.4,0-14,6.7-14,17.6s5.5,17.6,14.8,17.6c4.4,0,8.3-1.9,10.8-4.6v-9.1l-10.5-0.5v-4.5h16.1v15.8c-3.7,5.1-9.7,7.7-16.4,7.7
			C715.9,247.2,707.8,238.2,707.8,224.7z"/>
		<path d="M753.4,246.6v-14.8c0-5.7,0-11.3-0.3-17h5.3l0.6,5h0.4c2-3.7,5.7-5.6,9.5-5.6c4.9,0,8,2.1,9.7,6.2h0.4
			c2.1-4,5.8-6.2,10.4-6.2c6.7,0,10.7,4.1,10.7,12.8v19.6h-5.6v-18.9c0-5.6-2.4-8.5-6.7-8.5c-4.9,0-8.3,3.9-8.3,9.3v18.1H774v-18.9
			c0-5.6-2.4-8.5-6.7-8.5c-4.9,0-8.3,3.9-8.3,9.3v18.1H753.4z"/>
		<path d="M814.6,241.3h-0.4l-0.6,5.3h-5.3c0.3-5.7,0.3-11.3,0.3-17v-26.7h5.6v17.2h0.4c2.2-3.7,5.7-5.9,10.4-5.9
			c8.2,0,13.5,6.7,13.5,16.6c0,9.9-5.3,16.5-13.5,16.5C820.3,247.2,816.8,245,814.6,241.3z M832.9,230.7c0-7-3.7-11.6-9.4-11.6
			c-5.7,0-9.4,4.6-9.4,11.6c0,7,3.7,11.5,9.4,11.5C829.2,242.2,832.9,237.7,832.9,230.7z"/>
		<path d="M846.1,246.6v-43.7h5.6v19h22.8v-19h5.6v43.7h-5.6v-19.6h-22.8v19.6H846.1z"/>
	</g>
	<g>
		<path class="st2" d="M534.7,107.7c0,5.9,0,11.9,0,17.8c0,6-2.3,11-7,14.5c-25,18.3-69.6,27.4-103.3,9.2
			c-19.6-10.5-29.7-27.7-34.3-48.8c-5.6-25.8-2.1-50.1,13.1-71.9C415.3,11.2,433.3,3.7,453.6,1c15-2.1,30-1.1,44.4,4
			c11.4,4,20.8,11,26.9,21.4c2.9,4.9,4.6,11,5.2,16.6c0.6,6.9-4.2,12.3-10.6,14.6c-6.9,2.4-14.1,0.7-18.7-4.5
			c-2.2-2.5-4.4-5.1-5.9-8c-12.2-23.6-53.7-19.5-64.6,5.8c-8,18.7-8.3,37.8-0.3,56.5c6.6,15.5,19.6,22.2,36,22.2
			c10.7,0,21.1-2.4,30.8-7.1c3.5-1.6,4.9-3.8,4.8-7.7c-0.4-15.2,2.1-13.4-13.2-13.5c-4.4,0-8.7,0-13.1-0.3
			c-8.5-0.7-13.4-5.2-13.9-12.8c-0.5-7.8,3.9-13.4,12.5-14.6c5.6-0.8,11.4-0.7,17.2-0.7c8.5,0,17.1,0.2,25.6,0.4
			c12,0.3,17.8,6.2,18.1,18.2C534.9,96.9,534.8,102.3,534.7,107.7L534.7,107.7L534.7,107.7z"/>
		<path class="st2" d="M227.2,33.5c-6.3,0-12,0-17.7,0c-5.6,0-11.2,0.1-16.7-0.3c-7.7-0.7-13.2-6.6-13.4-14.2
			c-0.3-8.4,4.7-14.6,12.8-15.7c2.8-0.4,5.5-0.5,8.3-0.5c31.7,0.1,63.5,0,95.2,0.4c11.1,0.1,17.4,9.2,14.4,19.8
			c-1.8,6.1-6.2,9.8-13.6,10.2c-9.2,0.5-18.5,0.6-27.7,0.3c-4.5-0.1-5.9,1.1-5.9,5.8c0.2,31.6,0.2,63.1,0,94.7
			c0,4.6-0.7,9.4-1.9,13.9c-2.2,7.8-7.6,11.1-16.3,11c-8.2-0.1-14.3-4.2-16.1-11.5c-1-4.2-1.4-8.6-1.4-12.9c-0.1-31.2,0-62.4,0-93.7
			C227.2,38.7,227.2,36.6,227.2,33.5L227.2,33.5z"/>
		<path class="st2" d="M35.8,70.3c0,16,0,32.1,0,48.2c0,7.3,0,7.4,7.2,7.4c15.3,0,30.7-0.1,46,0.1c4.3,0,8.7,0.7,12.8,1.9
			c7.4,2.1,10.3,7.3,9.4,15.2c-0.7,7-5.4,11.9-12.4,12.7c-3.6,0.4-7.3,0.7-10.9,0.7c-22.2,0-44.3,0-66.5,0
			c-14.7,0-21.2-6.4-21.3-20.9C0,97.1,0,58.5,0.1,19.9c0-14,9.1-21.7,22.2-19.1C28.8,2.1,33,5.9,34.4,12.3c0.9,3.9,1.2,7.9,1.3,11.9
			C35.9,39.5,35.8,54.9,35.8,70.3z"/>
		<path class="st2" d="M333.8,84.9c6.6,0,13.2-0.2,19.9,0c7.7,0.3,13,5.6,13.8,13.7c0.7,7.3-3.4,14-10.8,14.9
			c-9.8,1.3-19.8,1.3-29.6,1.4c-5.2,0.1-10.5-0.2-15.6-1c-7.6-1.3-12.1-7.4-11.5-15c0.6-8,5.7-13.6,13.5-14
			C320.2,84.6,327,84.9,333.8,84.9L333.8,84.9z"/>
		<path class="st2" d="M146.9,84.9c6.5,0,12.9-0.1,19.4,0c8.1,0.2,13.6,6.1,13.9,14.6c0.3,8-4.4,13.8-12.7,14.2
			c-13,0.7-26.1,1.2-39.1,0.8c-12.1-0.3-17.9-8.3-15-19.1c1.7-6.6,6.2-10.3,13.2-10.5C133.3,84.7,140.1,84.9,146.9,84.9z"/>
	</g>
</g>
<g>
	<g>
		<path class="st1" d="M636.7-620.2c0,5.9,0,11.9,0,17.8c0,6-2.3,11-7,14.5c-25,18.3-69.6,27.4-103.3,9.2
			c-19.6-10.5-29.7-27.7-34.3-48.8c-5.6-25.8-2.1-50.1,13.1-71.9c12.1-17.3,30.1-24.8,50.4-27.5c15-2.1,30-1.1,44.4,4
			c11.4,4,20.8,11,26.9,21.4c2.9,4.9,4.6,11,5.2,16.6c0.6,6.9-4.2,12.3-10.6,14.6c-6.9,2.4-14.1,0.7-18.7-4.5
			c-2.2-2.5-4.4-5.1-5.9-8c-12.2-23.6-53.7-19.5-64.6,5.8c-8,18.7-8.3,37.8-0.3,56.5c6.6,15.5,19.6,22.2,36,22.2
			c10.7,0,21.1-2.4,30.8-7.1c3.5-1.6,4.9-3.8,4.8-7.7c-0.4-15.2,2.1-13.4-13.2-13.5c-4.4,0-8.7,0-13.1-0.3
			c-8.5-0.7-13.4-5.2-13.9-12.8c-0.5-7.8,3.9-13.4,12.5-14.6c5.6-0.8,11.4-0.7,17.2-0.7c8.5,0,17.1,0.2,25.6,0.4
			c12,0.3,17.8,6.2,18.1,18.2C636.9-631,636.8-625.6,636.7-620.2L636.7-620.2L636.7-620.2z"/>
		<path class="st1" d="M329.2-694.4c-6.3,0-12,0-17.7,0c-5.6,0-11.2,0.1-16.7-0.3c-7.7-0.7-13.2-6.6-13.4-14.2
			c-0.3-8.4,4.7-14.6,12.8-15.7c2.8-0.4,5.5-0.5,8.3-0.5c31.7,0.1,63.5,0,95.2,0.4c11.1,0.1,17.4,9.2,14.4,19.8
			c-1.8,6.1-6.2,9.8-13.6,10.2c-9.2,0.5-18.5,0.6-27.7,0.3c-4.5-0.1-5.9,1.1-5.9,5.8c0.2,31.6,0.2,63.1,0,94.7
			c0,4.6-0.7,9.4-1.9,13.9c-2.2,7.8-7.6,11.1-16.3,11c-8.2-0.1-14.3-4.2-16.1-11.5c-1-4.2-1.4-8.6-1.4-12.9c-0.1-31.2,0-62.4,0-93.7
			C329.2-689.2,329.2-691.3,329.2-694.4L329.2-694.4z"/>
		<path class="st1" d="M137.8-657.6c0,16,0,32.1,0,48.2c0,7.3,0,7.4,7.2,7.4c15.3,0,30.7-0.1,46,0.1c4.3,0,8.7,0.7,12.8,1.9
			c7.4,2.1,10.3,7.3,9.4,15.2c-0.7,7-5.4,11.9-12.4,12.7c-3.6,0.4-7.3,0.7-10.9,0.7c-22.2,0-44.3,0-66.5,0
			c-14.7,0-21.2-6.4-21.3-20.9c-0.1-38.5-0.1-77.1,0-115.7c0-14,9.1-21.7,22.2-19.1c6.5,1.3,10.7,5.1,12.1,11.5
			c0.9,3.9,1.2,7.9,1.3,11.9C137.9-688.4,137.8-673,137.8-657.6z"/>
		<path class="st1" d="M435.8-643c6.6,0,13.2-0.2,19.9,0c7.7,0.3,13,5.6,13.8,13.7c0.7,7.3-3.4,14-10.8,14.9
			c-9.8,1.3-19.8,1.3-29.6,1.4c-5.2,0.1-10.5-0.2-15.6-1c-7.6-1.3-12.1-7.4-11.5-15c0.6-8,5.7-13.6,13.5-14
			C422.2-643.3,429-643,435.8-643L435.8-643z"/>
		<path class="st1" d="M248.9-643c6.5,0,12.9-0.1,19.4,0c8.1,0.2,13.6,6.1,13.9,14.6c0.3,8-4.4,13.8-12.7,14.2
			c-13,0.7-26.1,1.2-39.1,0.8c-12.1-0.3-17.9-8.3-15-19.1c1.7-6.6,6.2-10.3,13.2-10.5C235.3-643.2,242.1-643,248.9-643z"/>
	</g>
</g>
</svg>
