<?xml version="1.0" encoding="utf-8"?>
<!-- Generator: Adobe Illustrator 27.3.1, SVG Export Plug-In . SVG Version: 6.00 Build 0)  -->
<svg version="1.1" id="Ebene_1" xmlns="http://www.w3.org/2000/svg" xmlns:xlink="http://www.w3.org/1999/xlink" x="0px" y="0px"
	 viewBox="0 0 534.8 159.1" style="enable-background:new 0 0 534.8 159.1;" xml:space="preserve">
<style type="text/css">
	.st0{fill:#FFFFFF;}
</style>
<g>
	<path class="st0" d="M534.7,107.7c0,5.9,0,11.9,0,17.8c0,6-2.3,11-7,14.5c-25,18.3-69.6,27.4-103.3,9.2
		c-19.6-10.5-29.7-27.7-34.3-48.8c-5.6-25.8-2.1-50.1,13.1-71.9C415.3,11.2,433.3,3.7,453.6,1c15-2.1,30-1.1,44.4,4
		c11.4,4,20.8,11,26.9,21.4c2.9,4.9,4.6,11,5.2,16.6c0.6,6.9-4.2,12.3-10.6,14.6c-6.9,2.4-14.1,0.7-18.7-4.5c-2.2-2.5-4.4-5.1-5.9-8
		c-12.2-23.6-53.7-19.5-64.6,5.8c-8,18.7-8.3,37.8-0.3,56.5c6.6,15.5,19.6,22.2,36,22.2c10.7,0,21.1-2.4,30.8-7.1
		c3.5-1.6,4.9-3.8,4.8-7.7c-0.4-15.2,2.1-13.4-13.2-13.5c-4.4,0-8.7,0-13.1-0.3c-8.5-0.7-13.4-5.2-13.9-12.8
		c-0.5-7.8,3.9-13.4,12.5-14.6c5.6-0.8,11.4-0.7,17.2-0.7c8.5,0,17.1,0.2,25.6,0.4c12,0.3,17.8,6.2,18.1,18.2c0.1,5.4,0,10.8,0,16.2
		l0,0L534.7,107.7z"/>
	<path class="st0" d="M227.2,33.6c-6.3,0-12,0-17.7,0c-5.6,0-11.2,0.1-16.7-0.3c-7.7-0.7-13.2-6.6-13.4-14.2
		c-0.3-8.4,4.7-14.6,12.8-15.7c2.8-0.4,5.5-0.5,8.3-0.5c31.7,0.1,63.5,0,95.2,0.4c11.1,0.1,17.4,9.2,14.4,19.8
		c-1.8,6.1-6.2,9.8-13.6,10.2c-9.2,0.5-18.5,0.6-27.7,0.3c-4.5-0.1-5.9,1.1-5.9,5.8c0.2,31.6,0.2,63.1,0,94.7
		c0,4.6-0.7,9.4-1.9,13.9c-2.2,7.8-7.6,11.1-16.3,11c-8.2-0.1-14.3-4.2-16.1-11.5c-1-4.2-1.4-8.6-1.4-12.9c-0.1-31.2,0-62.4,0-93.7
		C227.2,38.7,227.2,36.7,227.2,33.6L227.2,33.6z"/>
	<path class="st0" d="M35.8,70.3c0,16,0,32.1,0,48.2c0,7.3,0,7.4,7.2,7.4c15.3,0,30.7-0.1,46,0.1c4.3,0,8.7,0.7,12.8,1.9
		c7.4,2.1,10.3,7.3,9.4,15.2c-0.7,7-5.4,11.9-12.4,12.7c-3.6,0.4-7.3,0.7-10.9,0.7c-22.2,0-44.3,0-66.5,0
		c-14.7,0-21.2-6.4-21.3-20.9C0,97.1,0,58.5,0.1,19.9c0-14,9.1-21.7,22.2-19.1C28.8,2.1,33,5.9,34.4,12.3c0.9,3.9,1.2,7.9,1.3,11.9
		C35.9,39.6,35.8,54.9,35.8,70.3z"/>
	<path class="st0" d="M333.7,85c6.6,0,13.2-0.2,19.9,0c7.7,0.3,13,5.6,13.8,13.7c0.7,7.3-3.4,14-10.8,14.9
		c-9.8,1.3-19.8,1.3-29.6,1.4c-5.2,0.1-10.5-0.2-15.6-1c-7.6-1.3-12.1-7.4-11.5-15c0.6-8,5.7-13.6,13.5-14
		C320.1,84.6,327,84.9,333.7,85L333.7,85z"/>
	<path class="st0" d="M146.9,85c6.5,0,12.9-0.1,19.4,0c8.1,0.2,13.6,6.1,13.9,14.6c0.3,8-4.4,13.8-12.7,14.2
		c-13,0.7-26.1,1.2-39.1,0.8c-12.1-0.3-17.9-8.3-15-19.1c1.7-6.6,6.2-10.3,13.2-10.5C133.3,84.7,140.1,85,146.9,85z"/>
</g>
</svg>
